<svg xmlns="http://www.w3.org/2000/svg" version="1.1" xmlns:xlink="http://www.w3.org/1999/xlink" xmlns:svgjs="http://svgjs.com/svgjs" width="1440" height="560" preserveAspectRatio="none" viewBox="0 0 1440 560"><g mask="url(&quot;#SvgjsMask1002&quot;)" fill="none"><g mask="url(&quot;#SvgjsMask1003&quot;)"><path d="M670 170L510 330L510 370L490 390L450 390L390 450L330 450" stroke-width="3.33" stroke="rgba(10, 183, 155, 1)"></path><path d="M665 170 a5 5 0 1 0 10 0 a5 5 0 1 0 -10 0zM325 450 a5 5 0 1 0 10 0 a5 5 0 1 0 -10 0z" fill="rgba(10, 183, 155, 1)"></path><path d="M1350 290L1210 150L1210 90L1290 10L1390 10" stroke-width="3.33" stroke="rgba(10, 183, 155, 1)"></path><path d="M1345 290 a5 5 0 1 0 10 0 a5 5 0 1 0 -10 0zM1385 10 a5 5 0 1 0 10 0 a5 5 0 1 0 -10 0z" fill="rgba(10, 183, 155, 1)"></path><path d="M1130 130L1130 10" stroke-width="3.33" stroke="rgba(10, 183, 155, 1)"></path><path d="M1125 130 a5 5 0 1 0 10 0 a5 5 0 1 0 -10 0zM1125 10 a5 5 0 1 0 10 0 a5 5 0 1 0 -10 0z" fill="rgba(10, 183, 155, 1)"></path><path d="M270 370L270 170L250 150L250 10" stroke-width="3.33" stroke="rgba(10, 183, 155, 1)"></path><path d="M265 370 a5 5 0 1 0 10 0 a5 5 0 1 0 -10 0zM245 10 a5 5 0 1 0 10 0 a5 5 0 1 0 -10 0z" fill="rgba(10, 183, 155, 1)"></path><path d="M1330 510L1270 450L1150 450L1050 550L950 550" stroke-width="3.33" stroke="rgba(10, 183, 155, 1)"></path><path d="M1325 510 a5 5 0 1 0 10 0 a5 5 0 1 0 -10 0zM945 550 a5 5 0 1 0 10 0 a5 5 0 1 0 -10 0z" fill="rgba(10, 183, 155, 1)"></path><path d="M1310 70L1230 150" stroke-width="3.33" stroke="rgba(10, 183, 155, 1)"></path><path d="M1305 70 a5 5 0 1 0 10 0 a5 5 0 1 0 -10 0zM1225 150 a5 5 0 1 0 10 0 a5 5 0 1 0 -10 0z" fill="rgba(10, 183, 155, 1)"></path><path d="M910 450L950 450L1030 370L1030 250L1170 110" stroke-width="3.33" stroke="rgba(10, 183, 155, 1)"></path><path d="M905 450 a5 5 0 1 0 10 0 a5 5 0 1 0 -10 0zM1165 110 a5 5 0 1 0 10 0 a5 5 0 1 0 -10 0z" fill="rgba(10, 183, 155, 1)"></path><path d="M1110 230L1110 470L1050 530L970 530" stroke-width="3.33" stroke="rgba(10, 183, 155, 1)"></path><path d="M1105 230 a5 5 0 1 0 10 0 a5 5 0 1 0 -10 0zM965 530 a5 5 0 1 0 10 0 a5 5 0 1 0 -10 0z" fill="rgba(10, 183, 155, 1)"></path><path d="M50 10L10 50L10 230L130 350L170 350" stroke-width="3.33" stroke="rgba(10, 183, 155, 1)"></path><path d="M45 10 a5 5 0 1 0 10 0 a5 5 0 1 0 -10 0zM165 350 a5 5 0 1 0 10 0 a5 5 0 1 0 -10 0z" fill="rgba(10, 183, 155, 1)"></path><path d="M950 110L750 110L710 150L710 290" stroke-width="3.33" stroke="rgba(10, 183, 155, 1)"></path><path d="M945 110 a5 5 0 1 0 10 0 a5 5 0 1 0 -10 0zM705 290 a5 5 0 1 0 10 0 a5 5 0 1 0 -10 0z" fill="rgba(10, 183, 155, 1)"></path><path d="M1050 150L1050 210L870 390L870 430L950 510L970 510" stroke-width="3.33" stroke="rgba(10, 183, 155, 1)"></path><path d="M1045 150 a5 5 0 1 0 10 0 a5 5 0 1 0 -10 0zM965 510 a5 5 0 1 0 10 0 a5 5 0 1 0 -10 0z" fill="rgba(10, 183, 155, 1)"></path><path d="M530 390L830 390L850 410L850 470" stroke-width="3.33" stroke="rgba(10, 183, 155, 1)"></path><path d="M525 390 a5 5 0 1 0 10 0 a5 5 0 1 0 -10 0zM845 470 a5 5 0 1 0 10 0 a5 5 0 1 0 -10 0z" fill="rgba(10, 183, 155, 1)"></path><path d="M990 30L1110 30" stroke-width="3.33" stroke="rgba(10, 183, 155, 1)"></path><path d="M985 30 a5 5 0 1 0 10 0 a5 5 0 1 0 -10 0zM1105 30 a5 5 0 1 0 10 0 a5 5 0 1 0 -10 0z" fill="rgba(10, 183, 155, 1)"></path><path d="M1130 410L1130 170L1190 110L1190 70L1230 30" stroke-width="3.33" stroke="rgba(10, 183, 155, 1)"></path><path d="M1125 410 a5 5 0 1 0 10 0 a5 5 0 1 0 -10 0zM1225 30 a5 5 0 1 0 10 0 a5 5 0 1 0 -10 0z" fill="rgba(10, 183, 155, 1)"></path><path d="M70 270L70 130L150 50L230 50" stroke-width="3.33" stroke="rgba(10, 183, 155, 1)"></path><path d="M65 270 a5 5 0 1 0 10 0 a5 5 0 1 0 -10 0zM225 50 a5 5 0 1 0 10 0 a5 5 0 1 0 -10 0z" fill="rgba(10, 183, 155, 1)"></path><path d="M150 210L90 150L90 130L150 70L230 70" stroke-width="3.33" stroke="rgba(10, 183, 155, 1)"></path><path d="M145 210 a5 5 0 1 0 10 0 a5 5 0 1 0 -10 0zM225 70 a5 5 0 1 0 10 0 a5 5 0 1 0 -10 0z" fill="rgba(10, 183, 155, 1)"></path><path d="M1070 370L1090 390L1090 470L1050 510L990 510L950 470L930 470" stroke-width="3.33" stroke="rgba(10, 183, 155, 1)"></path><path d="M1065 370 a5 5 0 1 0 10 0 a5 5 0 1 0 -10 0zM925 470 a5 5 0 1 0 10 0 a5 5 0 1 0 -10 0z" fill="rgba(10, 183, 155, 1)"></path><path d="M1210 210L1150 270L1150 430L1130 450" stroke-width="3.33" stroke="rgba(10, 183, 155, 1)"></path><path d="M1205 210 a5 5 0 1 0 10 0 a5 5 0 1 0 -10 0zM1125 450 a5 5 0 1 0 10 0 a5 5 0 1 0 -10 0z" fill="rgba(10, 183, 155, 1)"></path><path d="M1030 390L1070 390" stroke-width="3.33" stroke="rgba(10, 183, 155, 1)"></path><path d="M1025 390 a5 5 0 1 0 10 0 a5 5 0 1 0 -10 0zM1065 390 a5 5 0 1 0 10 0 a5 5 0 1 0 -10 0z" fill="rgba(10, 183, 155, 1)"></path><path d="M1330 430L1430 430" stroke-width="3.33" stroke="rgba(10, 183, 155, 1)"></path><path d="M1325 430 a5 5 0 1 0 10 0 a5 5 0 1 0 -10 0zM1425 430 a5 5 0 1 0 10 0 a5 5 0 1 0 -10 0z" fill="rgba(10, 183, 155, 1)"></path><path d="M510 490L650 490L710 550L730 550L770 510L890 510" stroke-width="3.33" stroke="rgba(10, 183, 155, 1)"></path><path d="M505 490 a5 5 0 1 0 10 0 a5 5 0 1 0 -10 0zM885 510 a5 5 0 1 0 10 0 a5 5 0 1 0 -10 0z" fill="rgba(10, 183, 155, 1)"></path><path d="M1290 150L1290 110L1370 30L1430 30" stroke-width="3.33" stroke="rgba(10, 183, 155, 1)"></path><path d="M1285 150 a5 5 0 1 0 10 0 a5 5 0 1 0 -10 0zM1425 30 a5 5 0 1 0 10 0 a5 5 0 1 0 -10 0z" fill="rgba(10, 183, 155, 1)"></path><path d="M470 290L470 350L390 430L210 430L150 370" stroke-width="3.33" stroke="rgba(10, 183, 155, 1)"></path><path d="M465 290 a5 5 0 1 0 10 0 a5 5 0 1 0 -10 0zM145 370 a5 5 0 1 0 10 0 a5 5 0 1 0 -10 0z" fill="rgba(10, 183, 155, 1)"></path><path d="M430 70L610 70L670 130L670 150L550 270" stroke-width="3.33" stroke="rgba(10, 183, 155, 1)"></path><path d="M425 70 a5 5 0 1 0 10 0 a5 5 0 1 0 -10 0zM545 270 a5 5 0 1 0 10 0 a5 5 0 1 0 -10 0z" fill="rgba(10, 183, 155, 1)"></path><path d="M830 210L730 210" stroke-width="3.33" stroke="rgba(10, 183, 155, 1)"></path><path d="M825 210 a5 5 0 1 0 10 0 a5 5 0 1 0 -10 0zM725 210 a5 5 0 1 0 10 0 a5 5 0 1 0 -10 0z" fill="rgba(10, 183, 155, 1)"></path><path d="M650 370L870 370L1030 210" stroke-width="3.33" stroke="rgba(10, 183, 155, 1)"></path><path d="M645 370 a5 5 0 1 0 10 0 a5 5 0 1 0 -10 0zM1025 210 a5 5 0 1 0 10 0 a5 5 0 1 0 -10 0z" fill="rgba(10, 183, 155, 1)"></path><path d="M1290 490L1270 470L1150 470L1070 550" stroke-width="3.33" stroke="rgba(10, 183, 155, 1)"></path><path d="M1285 490 a5 5 0 1 0 10 0 a5 5 0 1 0 -10 0zM1065 550 a5 5 0 1 0 10 0 a5 5 0 1 0 -10 0z" fill="rgba(10, 183, 155, 1)"></path><path d="M1210 490L1270 490L1330 550L1370 550L1410 510L1410 450" stroke-width="3.33" stroke="rgba(10, 183, 155, 1)"></path><path d="M1205 490 a5 5 0 1 0 10 0 a5 5 0 1 0 -10 0zM1405 450 a5 5 0 1 0 10 0 a5 5 0 1 0 -10 0z" fill="rgba(10, 183, 155, 1)"></path><path d="M10 330L10 530L30 550L190 550" stroke-width="3.33" stroke="rgba(10, 183, 155, 1)"></path><path d="M5 330 a5 5 0 1 0 10 0 a5 5 0 1 0 -10 0zM185 550 a5 5 0 1 0 10 0 a5 5 0 1 0 -10 0z" fill="rgba(10, 183, 155, 1)"></path><path d="M1010 130L1010 50" stroke-width="3.33" stroke="rgba(10, 183, 155, 1)"></path><path d="M1005 130 a5 5 0 1 0 10 0 a5 5 0 1 0 -10 0zM1005 50 a5 5 0 1 0 10 0 a5 5 0 1 0 -10 0z" fill="rgba(10, 183, 155, 1)"></path><path d="M550 550L550 510" stroke-width="3.33" stroke="rgba(10, 183, 155, 1)"></path><path d="M545 550 a5 5 0 1 0 10 0 a5 5 0 1 0 -10 0zM545 510 a5 5 0 1 0 10 0 a5 5 0 1 0 -10 0z" fill="rgba(10, 183, 155, 1)"></path><path d="M610 170L630 170L650 150L650 130L610 90L330 90" stroke-width="3.33" stroke="rgba(10, 183, 155, 1)"></path><path d="M605 170 a5 5 0 1 0 10 0 a5 5 0 1 0 -10 0zM325 90 a5 5 0 1 0 10 0 a5 5 0 1 0 -10 0z" fill="rgba(10, 183, 155, 1)"></path><path d="M390 110L610 110L630 130L630 150" stroke-width="3.33" stroke="rgba(10, 183, 155, 1)"></path><path d="M385 110 a5 5 0 1 0 10 0 a5 5 0 1 0 -10 0zM625 150 a5 5 0 1 0 10 0 a5 5 0 1 0 -10 0z" fill="rgba(10, 183, 155, 1)"></path><path d="M890 30L970 30L990 50L990 130L790 330" stroke-width="3.33" stroke="rgba(10, 183, 155, 1)"></path><path d="M885 30 a5 5 0 1 0 10 0 a5 5 0 1 0 -10 0zM785 330 a5 5 0 1 0 10 0 a5 5 0 1 0 -10 0z" fill="rgba(10, 183, 155, 1)"></path><path d="M690 130L690 350" stroke-width="3.33" stroke="rgba(10, 183, 155, 1)"></path><path d="M685 130 a5 5 0 1 0 10 0 a5 5 0 1 0 -10 0zM685 350 a5 5 0 1 0 10 0 a5 5 0 1 0 -10 0z" fill="rgba(10, 183, 155, 1)"></path><path d="M170 110L190 90L230 90" stroke-width="3.33" stroke="rgba(10, 183, 155, 1)"></path><path d="M165 110 a5 5 0 1 0 10 0 a5 5 0 1 0 -10 0zM225 90 a5 5 0 1 0 10 0 a5 5 0 1 0 -10 0z" fill="rgba(10, 183, 155, 1)"></path><path d="M1050 90L1050 130L930 250L890 250L790 350L730 350L710 330" stroke-width="3.33" stroke="rgba(10, 183, 155, 1)"></path><path d="M1045 90 a5 5 0 1 0 10 0 a5 5 0 1 0 -10 0zM705 330 a5 5 0 1 0 10 0 a5 5 0 1 0 -10 0z" fill="rgba(10, 183, 155, 1)"></path><path d="M1230 110L1230 90L1290 30L1350 30" stroke-width="3.33" stroke="rgba(10, 183, 155, 1)"></path><path d="M1225 110 a5 5 0 1 0 10 0 a5 5 0 1 0 -10 0zM1345 30 a5 5 0 1 0 10 0 a5 5 0 1 0 -10 0z" fill="rgba(10, 183, 155, 1)"></path><path d="M370 310L290 230L290 10" stroke-width="3.33" stroke="rgba(10, 183, 155, 1)"></path><path d="M365 310 a5 5 0 1 0 10 0 a5 5 0 1 0 -10 0zM285 10 a5 5 0 1 0 10 0 a5 5 0 1 0 -10 0z" fill="rgba(10, 183, 155, 1)"></path><path d="M890 490L930 530L950 530" stroke-width="3.33" stroke="rgba(10, 183, 155, 1)"></path><path d="M885 490 a5 5 0 1 0 10 0 a5 5 0 1 0 -10 0zM945 530 a5 5 0 1 0 10 0 a5 5 0 1 0 -10 0z" fill="rgba(10, 183, 155, 1)"></path><path d="M170 310L170 290L90 210L90 170" stroke-width="3.33" stroke="rgba(10, 183, 155, 1)"></path><path d="M165 310 a5 5 0 1 0 10 0 a5 5 0 1 0 -10 0zM85 170 a5 5 0 1 0 10 0 a5 5 0 1 0 -10 0z" fill="rgba(10, 183, 155, 1)"></path><path d="M650 10L730 90L730 110L710 130" stroke-width="3.33" stroke="rgba(10, 183, 155, 1)"></path><path d="M645 10 a5 5 0 1 0 10 0 a5 5 0 1 0 -10 0zM705 130 a5 5 0 1 0 10 0 a5 5 0 1 0 -10 0z" fill="rgba(10, 183, 155, 1)"></path><path d="M290 510L270 530L270 550" stroke-width="3.33" stroke="rgba(10, 183, 155, 1)"></path><path d="M285 510 a5 5 0 1 0 10 0 a5 5 0 1 0 -10 0zM265 550 a5 5 0 1 0 10 0 a5 5 0 1 0 -10 0z" fill="rgba(10, 183, 155, 1)"></path><path d="M730 470L730 430L750 410L830 410" stroke-width="3.33" stroke="rgba(10, 183, 155, 1)"></path><path d="M725 470 a5 5 0 1 0 10 0 a5 5 0 1 0 -10 0zM825 410 a5 5 0 1 0 10 0 a5 5 0 1 0 -10 0z" fill="rgba(10, 183, 155, 1)"></path><path d="M510 190L410 190L370 150L370 110" stroke-width="3.33" stroke="rgba(10, 183, 155, 1)"></path><path d="M505 190 a5 5 0 1 0 10 0 a5 5 0 1 0 -10 0zM365 110 a5 5 0 1 0 10 0 a5 5 0 1 0 -10 0z" fill="rgba(10, 183, 155, 1)"></path><path d="M1190 290L1190 430" stroke-width="3.33" stroke="rgba(10, 183, 155, 1)"></path><path d="M1185 290 a5 5 0 1 0 10 0 a5 5 0 1 0 -10 0zM1185 430 a5 5 0 1 0 10 0 a5 5 0 1 0 -10 0z" fill="rgba(10, 183, 155, 1)"></path><path d="M1310 210L1290 210L1250 170" stroke-width="3.33" stroke="rgba(10, 183, 155, 1)"></path><path d="M1305 210 a5 5 0 1 0 10 0 a5 5 0 1 0 -10 0zM1245 170 a5 5 0 1 0 10 0 a5 5 0 1 0 -10 0z" fill="rgba(10, 183, 155, 1)"></path><path d="M770 550L930 550" stroke-width="3.33" stroke="rgba(10, 183, 155, 1)"></path><path d="M765 550 a5 5 0 1 0 10 0 a5 5 0 1 0 -10 0zM925 550 a5 5 0 1 0 10 0 a5 5 0 1 0 -10 0z" fill="rgba(10, 183, 155, 1)"></path><path d="M910 170L910 190L770 330L730 330L710 310" stroke-width="3.33" stroke="rgba(10, 183, 155, 1)"></path><path d="M905 170 a5 5 0 1 0 10 0 a5 5 0 1 0 -10 0zM705 310 a5 5 0 1 0 10 0 a5 5 0 1 0 -10 0z" fill="rgba(10, 183, 155, 1)"></path><path d="M930 130L750 130L730 150L730 190" stroke-width="3.33" stroke="rgba(10, 183, 155, 1)"></path><path d="M925 130 a5 5 0 1 0 10 0 a5 5 0 1 0 -10 0zM725 190 a5 5 0 1 0 10 0 a5 5 0 1 0 -10 0z" fill="rgba(10, 183, 155, 1)"></path><path d="M50 390L50 290L10 250" stroke-width="3.33" stroke="rgba(10, 183, 155, 1)"></path><path d="M45 390 a5 5 0 1 0 10 0 a5 5 0 1 0 -10 0zM5 250 a5 5 0 1 0 10 0 a5 5 0 1 0 -10 0z" fill="rgba(10, 183, 155, 1)"></path><path d="M1170 530L1190 510L1270 510L1310 550" stroke-width="3.33" stroke="rgba(10, 183, 155, 1)"></path><path d="M1165 530 a5 5 0 1 0 10 0 a5 5 0 1 0 -10 0zM1305 550 a5 5 0 1 0 10 0 a5 5 0 1 0 -10 0z" fill="rgba(10, 183, 155, 1)"></path><path d="M1050 350L1090 350" stroke-width="3.33" stroke="rgba(10, 183, 155, 1)"></path><path d="M1045 350 a5 5 0 1 0 10 0 a5 5 0 1 0 -10 0zM1085 350 a5 5 0 1 0 10 0 a5 5 0 1 0 -10 0z" fill="rgba(10, 183, 155, 1)"></path><path d="M570 290L590 270L610 270L670 330L670 350" stroke-width="3.33" stroke="rgba(10, 183, 155, 1)"></path><path d="M565 290 a5 5 0 1 0 10 0 a5 5 0 1 0 -10 0zM665 350 a5 5 0 1 0 10 0 a5 5 0 1 0 -10 0z" fill="rgba(10, 183, 155, 1)"></path><path d="M750 50L750 90" stroke-width="3.33" stroke="rgba(10, 183, 155, 1)"></path><path d="M745 50 a5 5 0 1 0 10 0 a5 5 0 1 0 -10 0zM745 90 a5 5 0 1 0 10 0 a5 5 0 1 0 -10 0z" fill="rgba(10, 183, 155, 1)"></path><path d="M250 310L170 230L170 130L190 110L230 110" stroke-width="3.33" stroke="rgba(10, 183, 155, 1)"></path><path d="M245 310 a5 5 0 1 0 10 0 a5 5 0 1 0 -10 0zM225 110 a5 5 0 1 0 10 0 a5 5 0 1 0 -10 0z" fill="rgba(10, 183, 155, 1)"></path><path d="M210 390L330 390L390 330L450 330" stroke-width="3.33" stroke="rgba(10, 183, 155, 1)"></path><path d="M205 390 a5 5 0 1 0 10 0 a5 5 0 1 0 -10 0zM445 330 a5 5 0 1 0 10 0 a5 5 0 1 0 -10 0z" fill="rgba(10, 183, 155, 1)"></path><path d="M110 490L70 530L50 530" stroke-width="3.33" stroke="rgba(10, 183, 155, 1)"></path><path d="M105 490 a5 5 0 1 0 10 0 a5 5 0 1 0 -10 0zM45 530 a5 5 0 1 0 10 0 a5 5 0 1 0 -10 0z" fill="rgba(10, 183, 155, 1)"></path><path d="M530 170L530 290L490 330L490 370" stroke-width="3.33" stroke="rgba(10, 183, 155, 1)"></path><path d="M525 170 a5 5 0 1 0 10 0 a5 5 0 1 0 -10 0zM485 370 a5 5 0 1 0 10 0 a5 5 0 1 0 -10 0z" fill="rgba(10, 183, 155, 1)"></path><path d="M1190 250L1230 210L1230 190L1190 150L1170 150L1150 170L1150 250" stroke-width="3.33" stroke="rgba(10, 183, 155, 1)"></path><path d="M1185 250 a5 5 0 1 0 10 0 a5 5 0 1 0 -10 0zM1145 250 a5 5 0 1 0 10 0 a5 5 0 1 0 -10 0z" fill="rgba(10, 183, 155, 1)"></path><path d="M730 270L730 230" stroke-width="3.33" stroke="rgba(10, 183, 155, 1)"></path><path d="M725 270 a5 5 0 1 0 10 0 a5 5 0 1 0 -10 0zM725 230 a5 5 0 1 0 10 0 a5 5 0 1 0 -10 0z" fill="rgba(10, 183, 155, 1)"></path><path d="M1050 410L1050 490" stroke-width="3.33" stroke="rgba(10, 183, 155, 1)"></path><path d="M1045 410 a5 5 0 1 0 10 0 a5 5 0 1 0 -10 0zM1045 490 a5 5 0 1 0 10 0 a5 5 0 1 0 -10 0z" fill="rgba(10, 183, 155, 1)"></path><path d="M850 10L810 50L810 90" stroke-width="3.33" stroke="rgba(10, 183, 155, 1)"></path><path d="M845 10 a5 5 0 1 0 10 0 a5 5 0 1 0 -10 0zM805 90 a5 5 0 1 0 10 0 a5 5 0 1 0 -10 0z" fill="rgba(10, 183, 155, 1)"></path><path d="M570 350L530 350" stroke-width="3.33" stroke="rgba(10, 183, 155, 1)"></path><path d="M565 350 a5 5 0 1 0 10 0 a5 5 0 1 0 -10 0zM525 350 a5 5 0 1 0 10 0 a5 5 0 1 0 -10 0z" fill="rgba(10, 183, 155, 1)"></path><path d="M490 510L490 410L510 390" stroke-width="3.33" stroke="rgba(10, 183, 155, 1)"></path><path d="M485 510 a5 5 0 1 0 10 0 a5 5 0 1 0 -10 0zM505 390 a5 5 0 1 0 10 0 a5 5 0 1 0 -10 0z" fill="rgba(10, 183, 155, 1)"></path><path d="M850 210L910 150L950 150L970 130L970 50" stroke-width="3.33" stroke="rgba(10, 183, 155, 1)"></path><path d="M845 210 a5 5 0 1 0 10 0 a5 5 0 1 0 -10 0zM965 50 a5 5 0 1 0 10 0 a5 5 0 1 0 -10 0z" fill="rgba(10, 183, 155, 1)"></path><path d="M630 510L650 510L690 550" stroke-width="3.33" stroke="rgba(10, 183, 155, 1)"></path><path d="M625 510 a5 5 0 1 0 10 0 a5 5 0 1 0 -10 0zM685 550 a5 5 0 1 0 10 0 a5 5 0 1 0 -10 0z" fill="rgba(10, 183, 155, 1)"></path><path d="M370 170L410 210L410 270L450 310" stroke-width="3.33" stroke="rgba(10, 183, 155, 1)"></path><path d="M365 170 a5 5 0 1 0 10 0 a5 5 0 1 0 -10 0zM445 310 a5 5 0 1 0 10 0 a5 5 0 1 0 -10 0z" fill="rgba(10, 183, 155, 1)"></path><path d="M170 430L150 450L150 530" stroke-width="3.33" stroke="rgba(10, 183, 155, 1)"></path><path d="M165 430 a5 5 0 1 0 10 0 a5 5 0 1 0 -10 0zM145 530 a5 5 0 1 0 10 0 a5 5 0 1 0 -10 0z" fill="rgba(10, 183, 155, 1)"></path><path d="M130 470L130 530" stroke-width="3.33" stroke="rgba(10, 183, 155, 1)"></path><path d="M125 470 a5 5 0 1 0 10 0 a5 5 0 1 0 -10 0zM125 530 a5 5 0 1 0 10 0 a5 5 0 1 0 -10 0z" fill="rgba(10, 183, 155, 1)"></path><path d="M590 550L670 550" stroke-width="3.33" stroke="rgba(10, 183, 155, 1)"></path><path d="M585 550 a5 5 0 1 0 10 0 a5 5 0 1 0 -10 0zM665 550 a5 5 0 1 0 10 0 a5 5 0 1 0 -10 0z" fill="rgba(10, 183, 155, 1)"></path><path d="M510 130L590 210" stroke-width="3.33" stroke="rgba(10, 183, 155, 1)"></path><path d="M505 130 a5 5 0 1 0 10 0 a5 5 0 1 0 -10 0zM585 210 a5 5 0 1 0 10 0 a5 5 0 1 0 -10 0z" fill="rgba(10, 183, 155, 1)"></path><path d="M390 250L310 170L310 10" stroke-width="3.33" stroke="rgba(10, 183, 155, 1)"></path><path d="M385 250 a5 5 0 1 0 10 0 a5 5 0 1 0 -10 0zM305 10 a5 5 0 1 0 10 0 a5 5 0 1 0 -10 0z" fill="rgba(10, 183, 155, 1)"></path><path d="M270 150L270 10" stroke-width="3.33" stroke="rgba(10, 183, 155, 1)"></path><path d="M265 150 a5 5 0 1 0 10 0 a5 5 0 1 0 -10 0zM265 10 a5 5 0 1 0 10 0 a5 5 0 1 0 -10 0z" fill="rgba(10, 183, 155, 1)"></path><path d="M1390 110L1310 110" stroke-width="3.33" stroke="rgba(10, 183, 155, 1)"></path><path d="M1385 110 a5 5 0 1 0 10 0 a5 5 0 1 0 -10 0zM1305 110 a5 5 0 1 0 10 0 a5 5 0 1 0 -10 0z" fill="rgba(10, 183, 155, 1)"></path><path d="M130 230L110 210L110 190" stroke-width="3.33" stroke="rgba(10, 183, 155, 1)"></path><path d="M125 230 a5 5 0 1 0 10 0 a5 5 0 1 0 -10 0zM105 190 a5 5 0 1 0 10 0 a5 5 0 1 0 -10 0z" fill="rgba(10, 183, 155, 1)"></path><path d="M1430 130L1310 130" stroke-width="3.33" stroke="rgba(10, 183, 155, 1)"></path><path d="M1425 130 a5 5 0 1 0 10 0 a5 5 0 1 0 -10 0zM1305 130 a5 5 0 1 0 10 0 a5 5 0 1 0 -10 0z" fill="rgba(10, 183, 155, 1)"></path><path d="M1290 290L1210 370L1210 430" stroke-width="3.33" stroke="rgba(10, 183, 155, 1)"></path><path d="M1285 290 a5 5 0 1 0 10 0 a5 5 0 1 0 -10 0zM1205 430 a5 5 0 1 0 10 0 a5 5 0 1 0 -10 0z" fill="rgba(10, 183, 155, 1)"></path><path d="M250 210L190 210" stroke-width="3.33" stroke="rgba(10, 183, 155, 1)"></path><path d="M245 210 a5 5 0 1 0 10 0 a5 5 0 1 0 -10 0zM185 210 a5 5 0 1 0 10 0 a5 5 0 1 0 -10 0z" fill="rgba(10, 183, 155, 1)"></path><path d="M1010 370L990 370L970 390L970 410L950 430L890 430" stroke-width="3.33" stroke="rgba(10, 183, 155, 1)"></path><path d="M1005 370 a5 5 0 1 0 10 0 a5 5 0 1 0 -10 0zM885 430 a5 5 0 1 0 10 0 a5 5 0 1 0 -10 0z" fill="rgba(10, 183, 155, 1)"></path><path d="M470 530L490 550L530 550" stroke-width="3.33" stroke="rgba(10, 183, 155, 1)"></path><path d="M465 530 a5 5 0 1 0 10 0 a5 5 0 1 0 -10 0zM525 550 a5 5 0 1 0 10 0 a5 5 0 1 0 -10 0z" fill="rgba(10, 183, 155, 1)"></path><path d="M610 310L610 370" stroke-width="3.33" stroke="rgba(10, 183, 155, 1)"></path><path d="M605 310 a5 5 0 1 0 10 0 a5 5 0 1 0 -10 0zM605 370 a5 5 0 1 0 10 0 a5 5 0 1 0 -10 0z" fill="rgba(10, 183, 155, 1)"></path><path d="M1190 530L1170 550L1090 550" stroke-width="3.33" stroke="rgba(10, 183, 155, 1)"></path><path d="M1185 530 a5 5 0 1 0 10 0 a5 5 0 1 0 -10 0zM1085 550 a5 5 0 1 0 10 0 a5 5 0 1 0 -10 0z" fill="rgba(10, 183, 155, 1)"></path><path d="M1270 410L1310 370L1310 270L1250 210" stroke-width="3.33" stroke="rgba(10, 183, 155, 1)"></path><path d="M1265 410 a5 5 0 1 0 10 0 a5 5 0 1 0 -10 0zM1245 210 a5 5 0 1 0 10 0 a5 5 0 1 0 -10 0z" fill="rgba(10, 183, 155, 1)"></path><path d="M30 110L70 110L170 10L230 10" stroke-width="3.33" stroke="rgba(10, 183, 155, 1)"></path><path d="M25 110 a5 5 0 1 0 10 0 a5 5 0 1 0 -10 0zM225 10 a5 5 0 1 0 10 0 a5 5 0 1 0 -10 0z" fill="rgba(10, 183, 155, 1)"></path><path d="M950 390L930 410L890 410" stroke-width="3.33" stroke="rgba(10, 183, 155, 1)"></path><path d="M945 390 a5 5 0 1 0 10 0 a5 5 0 1 0 -10 0zM885 410 a5 5 0 1 0 10 0 a5 5 0 1 0 -10 0z" fill="rgba(10, 183, 155, 1)"></path><path d="M570 10L670 110L710 110" stroke-width="3.33" stroke="rgba(10, 183, 155, 1)"></path><path d="M565 10 a5 5 0 1 0 10 0 a5 5 0 1 0 -10 0zM705 110 a5 5 0 1 0 10 0 a5 5 0 1 0 -10 0z" fill="rgba(10, 183, 155, 1)"></path><path d="M1350 530L1390 490L1390 450" stroke-width="3.33" stroke="rgba(10, 183, 155, 1)"></path><path d="M1345 530 a5 5 0 1 0 10 0 a5 5 0 1 0 -10 0zM1385 450 a5 5 0 1 0 10 0 a5 5 0 1 0 -10 0z" fill="rgba(10, 183, 155, 1)"></path><path d="M1430 510L1390 550" stroke-width="3.33" stroke="rgba(10, 183, 155, 1)"></path><path d="M1425 510 a5 5 0 1 0 10 0 a5 5 0 1 0 -10 0zM1385 550 a5 5 0 1 0 10 0 a5 5 0 1 0 -10 0z" fill="rgba(10, 183, 155, 1)"></path><path d="M150 250L170 250L250 330L250 370" stroke-width="3.33" stroke="rgba(10, 183, 155, 1)"></path><path d="M145 250 a5 5 0 1 0 10 0 a5 5 0 1 0 -10 0zM245 370 a5 5 0 1 0 10 0 a5 5 0 1 0 -10 0z" fill="rgba(10, 183, 155, 1)"></path><path d="M470 170L510 170" stroke-width="3.33" stroke="rgba(10, 183, 155, 1)"></path><path d="M465 170 a5 5 0 1 0 10 0 a5 5 0 1 0 -10 0zM505 170 a5 5 0 1 0 10 0 a5 5 0 1 0 -10 0z" fill="rgba(10, 183, 155, 1)"></path><path d="M1190 190L1190 210L1170 230" stroke-width="3.33" stroke="rgba(10, 183, 155, 1)"></path><path d="M1185 190 a5 5 0 1 0 10 0 a5 5 0 1 0 -10 0zM1165 230 a5 5 0 1 0 10 0 a5 5 0 1 0 -10 0z" fill="rgba(10, 183, 155, 1)"></path><path d="M310 190L430 310" stroke-width="3.33" stroke="rgba(10, 183, 155, 1)"></path><path d="M305 190 a5 5 0 1 0 10 0 a5 5 0 1 0 -10 0zM425 310 a5 5 0 1 0 10 0 a5 5 0 1 0 -10 0z" fill="rgba(10, 183, 155, 1)"></path><path d="M1030 10L870 10L830 50L830 90" stroke-width="3.33" stroke="rgba(10, 183, 155, 1)"></path><path d="M1025 10 a5 5 0 1 0 10 0 a5 5 0 1 0 -10 0zM825 90 a5 5 0 1 0 10 0 a5 5 0 1 0 -10 0z" fill="rgba(10, 183, 155, 1)"></path><path d="M310 410L210 410" stroke-width="3.33" stroke="rgba(10, 183, 155, 1)"></path><path d="M305 410 a5 5 0 1 0 10 0 a5 5 0 1 0 -10 0zM205 410 a5 5 0 1 0 10 0 a5 5 0 1 0 -10 0z" fill="rgba(10, 183, 155, 1)"></path><path d="M570 410L510 410" stroke-width="3.33" stroke="rgba(10, 183, 155, 1)"></path><path d="M565 410 a5 5 0 1 0 10 0 a5 5 0 1 0 -10 0zM505 410 a5 5 0 1 0 10 0 a5 5 0 1 0 -10 0z" fill="rgba(10, 183, 155, 1)"></path><path d="M1010 270L890 390" stroke-width="3.33" stroke="rgba(10, 183, 155, 1)"></path><path d="M1005 270 a5 5 0 1 0 10 0 a5 5 0 1 0 -10 0zM885 390 a5 5 0 1 0 10 0 a5 5 0 1 0 -10 0z" fill="rgba(10, 183, 155, 1)"></path><path d="M1230 310L1210 330L1210 350" stroke-width="3.33" stroke="rgba(10, 183, 155, 1)"></path><path d="M1225 310 a5 5 0 1 0 10 0 a5 5 0 1 0 -10 0zM1205 350 a5 5 0 1 0 10 0 a5 5 0 1 0 -10 0z" fill="rgba(10, 183, 155, 1)"></path><path d="M170 510L230 450L250 450L310 510L470 510" stroke-width="3.33" stroke="rgba(10, 183, 155, 1)"></path><path d="M165 510 a5 5 0 1 0 10 0 a5 5 0 1 0 -10 0zM465 510 a5 5 0 1 0 10 0 a5 5 0 1 0 -10 0z" fill="rgba(10, 183, 155, 1)"></path><path d="M810 430L750 430" stroke-width="3.33" stroke="rgba(10, 183, 155, 1)"></path><path d="M805 430 a5 5 0 1 0 10 0 a5 5 0 1 0 -10 0zM745 430 a5 5 0 1 0 10 0 a5 5 0 1 0 -10 0z" fill="rgba(10, 183, 155, 1)"></path><path d="M150 150L130 130L110 130" stroke-width="3.33" stroke="rgba(10, 183, 155, 1)"></path><path d="M145 150 a5 5 0 1 0 10 0 a5 5 0 1 0 -10 0zM105 130 a5 5 0 1 0 10 0 a5 5 0 1 0 -10 0z" fill="rgba(10, 183, 155, 1)"></path><path d="M1210 250L1170 290L1170 430" stroke-width="3.33" stroke="rgba(10, 183, 155, 1)"></path><path d="M1205 250 a5 5 0 1 0 10 0 a5 5 0 1 0 -10 0zM1165 430 a5 5 0 1 0 10 0 a5 5 0 1 0 -10 0z" fill="rgba(10, 183, 155, 1)"></path><path d="M870 290L890 310L910 310L1030 190L1030 170" stroke-width="3.33" stroke="rgba(10, 183, 155, 1)"></path><path d="M865 290 a5 5 0 1 0 10 0 a5 5 0 1 0 -10 0zM1025 170 a5 5 0 1 0 10 0 a5 5 0 1 0 -10 0z" fill="rgba(10, 183, 155, 1)"></path><path d="M810 350L850 310L870 310L890 330" stroke-width="3.33" stroke="rgba(10, 183, 155, 1)"></path><path d="M805 350 a5 5 0 1 0 10 0 a5 5 0 1 0 -10 0zM885 330 a5 5 0 1 0 10 0 a5 5 0 1 0 -10 0z" fill="rgba(10, 183, 155, 1)"></path><path d="M90 450L130 410L170 410" stroke-width="3.33" stroke="rgba(10, 183, 155, 1)"></path><path d="M85 450 a5 5 0 1 0 10 0 a5 5 0 1 0 -10 0zM165 410 a5 5 0 1 0 10 0 a5 5 0 1 0 -10 0z" fill="rgba(10, 183, 155, 1)"></path><path d="M810 230L790 250L790 290L770 310L730 310" stroke-width="3.33" stroke="rgba(10, 183, 155, 1)"></path><path d="M805 230 a5 5 0 1 0 10 0 a5 5 0 1 0 -10 0zM725 310 a5 5 0 1 0 10 0 a5 5 0 1 0 -10 0z" fill="rgba(10, 183, 155, 1)"></path><path d="M710 470L710 410" stroke-width="3.33" stroke="rgba(10, 183, 155, 1)"></path><path d="M705 470 a5 5 0 1 0 10 0 a5 5 0 1 0 -10 0zM705 410 a5 5 0 1 0 10 0 a5 5 0 1 0 -10 0z" fill="rgba(10, 183, 155, 1)"></path><path d="M790 470L770 450L750 450" stroke-width="3.33" stroke="rgba(10, 183, 155, 1)"></path><path d="M785 470 a5 5 0 1 0 10 0 a5 5 0 1 0 -10 0zM745 450 a5 5 0 1 0 10 0 a5 5 0 1 0 -10 0z" fill="rgba(10, 183, 155, 1)"></path><path d="M450 270L450 210" stroke-width="3.33" stroke="rgba(10, 183, 155, 1)"></path><path d="M445 270 a5 5 0 1 0 10 0 a5 5 0 1 0 -10 0zM445 210 a5 5 0 1 0 10 0 a5 5 0 1 0 -10 0z" fill="rgba(10, 183, 155, 1)"></path><path d="M510 250L510 210" stroke-width="3.33" stroke="rgba(10, 183, 155, 1)"></path><path d="M505 250 a5 5 0 1 0 10 0 a5 5 0 1 0 -10 0zM505 210 a5 5 0 1 0 10 0 a5 5 0 1 0 -10 0z" fill="rgba(10, 183, 155, 1)"></path><path d="M1290 70L1270 70L1250 90L1250 110" stroke-width="3.33" stroke="rgba(10, 183, 155, 1)"></path><path d="M1285 70 a5 5 0 1 0 10 0 a5 5 0 1 0 -10 0zM1245 110 a5 5 0 1 0 10 0 a5 5 0 1 0 -10 0z" fill="rgba(10, 183, 155, 1)"></path><path d="M470 430L410 490L310 490L270 450" stroke-width="3.33" stroke="rgba(10, 183, 155, 1)"></path><path d="M465 430 a5 5 0 1 0 10 0 a5 5 0 1 0 -10 0zM265 450 a5 5 0 1 0 10 0 a5 5 0 1 0 -10 0z" fill="rgba(10, 183, 155, 1)"></path><path d="M450 410L450 430L430 450L410 450L390 470L310 470L290 450" stroke-width="3.33" stroke="rgba(10, 183, 155, 1)"></path><path d="M445 410 a5 5 0 1 0 10 0 a5 5 0 1 0 -10 0zM285 450 a5 5 0 1 0 10 0 a5 5 0 1 0 -10 0z" fill="rgba(10, 183, 155, 1)"></path><path d="M290 370L310 370L350 330L370 330" stroke-width="3.33" stroke="rgba(10, 183, 155, 1)"></path><path d="M285 370 a5 5 0 1 0 10 0 a5 5 0 1 0 -10 0zM365 330 a5 5 0 1 0 10 0 a5 5 0 1 0 -10 0z" fill="rgba(10, 183, 155, 1)"></path><path d="M1110 210L1090 210L1050 250L1050 330" stroke-width="3.33" stroke="rgba(10, 183, 155, 1)"></path><path d="M1105 210 a5 5 0 1 0 10 0 a5 5 0 1 0 -10 0zM1045 330 a5 5 0 1 0 10 0 a5 5 0 1 0 -10 0z" fill="rgba(10, 183, 155, 1)"></path><path d="M30 390L70 430L90 430L130 390L150 390" stroke-width="3.33" stroke="rgba(10, 183, 155, 1)"></path><path d="M25 390 a5 5 0 1 0 10 0 a5 5 0 1 0 -10 0zM145 390 a5 5 0 1 0 10 0 a5 5 0 1 0 -10 0z" fill="rgba(10, 183, 155, 1)"></path><path d="M530 470L690 470L730 510L750 510L770 490L770 470" stroke-width="3.33" stroke="rgba(10, 183, 155, 1)"></path><path d="M525 470 a5 5 0 1 0 10 0 a5 5 0 1 0 -10 0zM765 470 a5 5 0 1 0 10 0 a5 5 0 1 0 -10 0z" fill="rgba(10, 183, 155, 1)"></path><path d="M370 270L410 310" stroke-width="3.33" stroke="rgba(10, 183, 155, 1)"></path><path d="M365 270 a5 5 0 1 0 10 0 a5 5 0 1 0 -10 0zM405 310 a5 5 0 1 0 10 0 a5 5 0 1 0 -10 0z" fill="rgba(10, 183, 155, 1)"></path><path d="M330 530L310 550L290 550" stroke-width="3.33" stroke="rgba(10, 183, 155, 1)"></path><path d="M325 530 a5 5 0 1 0 10 0 a5 5 0 1 0 -10 0zM285 550 a5 5 0 1 0 10 0 a5 5 0 1 0 -10 0z" fill="rgba(10, 183, 155, 1)"></path><path d="M1370 150L1330 190L1290 190L1270 170L1270 130" stroke-width="3.33" stroke="rgba(10, 183, 155, 1)"></path><path d="M1365 150 a5 5 0 1 0 10 0 a5 5 0 1 0 -10 0zM1265 130 a5 5 0 1 0 10 0 a5 5 0 1 0 -10 0z" fill="rgba(10, 183, 155, 1)"></path><path d="M370 390L350 410L330 410" stroke-width="3.33" stroke="rgba(10, 183, 155, 1)"></path><path d="M365 390 a5 5 0 1 0 10 0 a5 5 0 1 0 -10 0zM325 410 a5 5 0 1 0 10 0 a5 5 0 1 0 -10 0z" fill="rgba(10, 183, 155, 1)"></path><path d="M1130 530L1150 530L1190 490" stroke-width="3.33" stroke="rgba(10, 183, 155, 1)"></path><path d="M1125 530 a5 5 0 1 0 10 0 a5 5 0 1 0 -10 0zM1185 490 a5 5 0 1 0 10 0 a5 5 0 1 0 -10 0z" fill="rgba(10, 183, 155, 1)"></path><path d="M570 550L590 530L590 510" stroke-width="3.33" stroke="rgba(10, 183, 155, 1)"></path><path d="M565 550 a5 5 0 1 0 10 0 a5 5 0 1 0 -10 0zM585 510 a5 5 0 1 0 10 0 a5 5 0 1 0 -10 0z" fill="rgba(10, 183, 155, 1)"></path><path d="M790 50L770 70L770 90" stroke-width="3.33" stroke="rgba(10, 183, 155, 1)"></path><path d="M785 50 a5 5 0 1 0 10 0 a5 5 0 1 0 -10 0zM765 90 a5 5 0 1 0 10 0 a5 5 0 1 0 -10 0z" fill="rgba(10, 183, 155, 1)"></path><path d="M390 30L410 50L430 50L470 10L550 10L590 50" stroke-width="3.33" stroke="rgba(10, 183, 155, 1)"></path><path d="M385 30 a5 5 0 1 0 10 0 a5 5 0 1 0 -10 0zM585 50 a5 5 0 1 0 10 0 a5 5 0 1 0 -10 0z" fill="rgba(10, 183, 155, 1)"></path><path d="M990 330L990 310L1010 290" stroke-width="3.33" stroke="rgba(10, 183, 155, 1)"></path><path d="M985 330 a5 5 0 1 0 10 0 a5 5 0 1 0 -10 0zM1005 290 a5 5 0 1 0 10 0 a5 5 0 1 0 -10 0z" fill="rgba(10, 183, 155, 1)"></path><path d="M370 370L390 350L430 350" stroke-width="3.33" stroke="rgba(10, 183, 155, 1)"></path><path d="M365 370 a5 5 0 1 0 10 0 a5 5 0 1 0 -10 0zM425 350 a5 5 0 1 0 10 0 a5 5 0 1 0 -10 0z" fill="rgba(10, 183, 155, 1)"></path><path d="M1370 350L1430 350" stroke-width="3.33" stroke="rgba(10, 183, 155, 1)"></path><path d="M1365 350 a5 5 0 1 0 10 0 a5 5 0 1 0 -10 0zM1425 350 a5 5 0 1 0 10 0 a5 5 0 1 0 -10 0z" fill="rgba(10, 183, 155, 1)"></path><path d="M1110 10L1070 10" stroke-width="3.33" stroke="rgba(10, 183, 155, 1)"></path><path d="M1105 10 a5 5 0 1 0 10 0 a5 5 0 1 0 -10 0zM1065 10 a5 5 0 1 0 10 0 a5 5 0 1 0 -10 0z" fill="rgba(10, 183, 155, 1)"></path><path d="M1350 210L1350 190L1390 150L1430 150" stroke-width="3.33" stroke="rgba(10, 183, 155, 1)"></path><path d="M1345 210 a5 5 0 1 0 10 0 a5 5 0 1 0 -10 0zM1425 150 a5 5 0 1 0 10 0 a5 5 0 1 0 -10 0z" fill="rgba(10, 183, 155, 1)"></path><path d="M530 450L690 450" stroke-width="3.33" stroke="rgba(10, 183, 155, 1)"></path><path d="M525 450 a5 5 0 1 0 10 0 a5 5 0 1 0 -10 0zM685 450 a5 5 0 1 0 10 0 a5 5 0 1 0 -10 0z" fill="rgba(10, 183, 155, 1)"></path><path d="M350 170L390 210L390 230" stroke-width="3.33" stroke="rgba(10, 183, 155, 1)"></path><path d="M345 170 a5 5 0 1 0 10 0 a5 5 0 1 0 -10 0zM385 230 a5 5 0 1 0 10 0 a5 5 0 1 0 -10 0z" fill="rgba(10, 183, 155, 1)"></path><path d="M1070 330L1070 250L1090 230" stroke-width="3.33" stroke="rgba(10, 183, 155, 1)"></path><path d="M1065 330 a5 5 0 1 0 10 0 a5 5 0 1 0 -10 0zM1085 230 a5 5 0 1 0 10 0 a5 5 0 1 0 -10 0z" fill="rgba(10, 183, 155, 1)"></path><path d="M1090 130L1110 110L1110 50" stroke-width="3.33" stroke="rgba(10, 183, 155, 1)"></path><path d="M1085 130 a5 5 0 1 0 10 0 a5 5 0 1 0 -10 0zM1105 50 a5 5 0 1 0 10 0 a5 5 0 1 0 -10 0z" fill="rgba(10, 183, 155, 1)"></path><path d="M70 350L70 410" stroke-width="3.33" stroke="rgba(10, 183, 155, 1)"></path><path d="M65 350 a5 5 0 1 0 10 0 a5 5 0 1 0 -10 0zM65 410 a5 5 0 1 0 10 0 a5 5 0 1 0 -10 0z" fill="rgba(10, 183, 155, 1)"></path><path d="M790 190L850 190L890 150" stroke-width="3.33" stroke="rgba(10, 183, 155, 1)"></path><path d="M785 190 a5 5 0 1 0 10 0 a5 5 0 1 0 -10 0zM885 150 a5 5 0 1 0 10 0 a5 5 0 1 0 -10 0z" fill="rgba(10, 183, 155, 1)"></path><path d="M470 150L450 170L410 170" stroke-width="3.33" stroke="rgba(10, 183, 155, 1)"></path><path d="M465 150 a5 5 0 1 0 10 0 a5 5 0 1 0 -10 0zM405 170 a5 5 0 1 0 10 0 a5 5 0 1 0 -10 0z" fill="rgba(10, 183, 155, 1)"></path><path d="M250 190L250 170L210 130L190 130" stroke-width="3.33" stroke="rgba(10, 183, 155, 1)"></path><path d="M245 190 a5 5 0 1 0 10 0 a5 5 0 1 0 -10 0zM185 130 a5 5 0 1 0 10 0 a5 5 0 1 0 -10 0z" fill="rgba(10, 183, 155, 1)"></path><path d="M810 470L830 470L850 490L870 490L890 470" stroke-width="3.33" stroke="rgba(10, 183, 155, 1)"></path><path d="M805 470 a5 5 0 1 0 10 0 a5 5 0 1 0 -10 0zM885 470 a5 5 0 1 0 10 0 a5 5 0 1 0 -10 0z" fill="rgba(10, 183, 155, 1)"></path><path d="M590 130L550 130" stroke-width="3.33" stroke="rgba(10, 183, 155, 1)"></path><path d="M585 130 a5 5 0 1 0 10 0 a5 5 0 1 0 -10 0zM545 130 a5 5 0 1 0 10 0 a5 5 0 1 0 -10 0z" fill="rgba(10, 183, 155, 1)"></path><path d="M750 250L750 290" stroke-width="3.33" stroke="rgba(10, 183, 155, 1)"></path><path d="M745 250 a5 5 0 1 0 10 0 a5 5 0 1 0 -10 0zM745 290 a5 5 0 1 0 10 0 a5 5 0 1 0 -10 0z" fill="rgba(10, 183, 155, 1)"></path><path d="M1290 270L1250 230L1230 230" stroke-width="3.33" stroke="rgba(10, 183, 155, 1)"></path><path d="M1285 270 a5 5 0 1 0 10 0 a5 5 0 1 0 -10 0zM1225 230 a5 5 0 1 0 10 0 a5 5 0 1 0 -10 0z" fill="rgba(10, 183, 155, 1)"></path><path d="M1370 250L1330 250L1310 230" stroke-width="3.33" stroke="rgba(10, 183, 155, 1)"></path><path d="M1365 250 a5 5 0 1 0 10 0 a5 5 0 1 0 -10 0zM1305 230 a5 5 0 1 0 10 0 a5 5 0 1 0 -10 0z" fill="rgba(10, 183, 155, 1)"></path><path d="M430 250L430 210" stroke-width="3.33" stroke="rgba(10, 183, 155, 1)"></path><path d="M425 250 a5 5 0 1 0 10 0 a5 5 0 1 0 -10 0zM425 210 a5 5 0 1 0 10 0 a5 5 0 1 0 -10 0z" fill="rgba(10, 183, 155, 1)"></path><path d="M870 90L850 70L850 50L870 30" stroke-width="3.33" stroke="rgba(10, 183, 155, 1)"></path><path d="M865 90 a5 5 0 1 0 10 0 a5 5 0 1 0 -10 0zM865 30 a5 5 0 1 0 10 0 a5 5 0 1 0 -10 0z" fill="rgba(10, 183, 155, 1)"></path><path d="M490 210L470 230L470 270L490 290L490 310" stroke-width="3.33" stroke="rgba(10, 183, 155, 1)"></path><path d="M485 210 a5 5 0 1 0 10 0 a5 5 0 1 0 -10 0zM485 310 a5 5 0 1 0 10 0 a5 5 0 1 0 -10 0z" fill="rgba(10, 183, 155, 1)"></path><path d="M550 210L550 250" stroke-width="3.33" stroke="rgba(10, 183, 155, 1)"></path><path d="M545 210 a5 5 0 1 0 10 0 a5 5 0 1 0 -10 0zM545 250 a5 5 0 1 0 10 0 a5 5 0 1 0 -10 0z" fill="rgba(10, 183, 155, 1)"></path><path d="M350 50L370 70L410 70" stroke-width="3.33" stroke="rgba(10, 183, 155, 1)"></path><path d="M345 50 a5 5 0 1 0 10 0 a5 5 0 1 0 -10 0zM405 70 a5 5 0 1 0 10 0 a5 5 0 1 0 -10 0z" fill="rgba(10, 183, 155, 1)"></path><path d="M130 110L150 110L170 90" stroke-width="3.33" stroke="rgba(10, 183, 155, 1)"></path><path d="M125 110 a5 5 0 1 0 10 0 a5 5 0 1 0 -10 0zM165 90 a5 5 0 1 0 10 0 a5 5 0 1 0 -10 0z" fill="rgba(10, 183, 155, 1)"></path><path d="M1390 290L1430 250L1430 170" stroke-width="3.33" stroke="rgba(10, 183, 155, 1)"></path><path d="M1385 290 a5 5 0 1 0 10 0 a5 5 0 1 0 -10 0zM1425 170 a5 5 0 1 0 10 0 a5 5 0 1 0 -10 0z" fill="rgba(10, 183, 155, 1)"></path><path d="M1070 90L1070 190" stroke-width="3.33" stroke="rgba(10, 183, 155, 1)"></path><path d="M1065 90 a5 5 0 1 0 10 0 a5 5 0 1 0 -10 0zM1065 190 a5 5 0 1 0 10 0 a5 5 0 1 0 -10 0z" fill="rgba(10, 183, 155, 1)"></path><path d="M90 350L90 370L110 390" stroke-width="3.33" stroke="rgba(10, 183, 155, 1)"></path><path d="M85 350 a5 5 0 1 0 10 0 a5 5 0 1 0 -10 0zM105 390 a5 5 0 1 0 10 0 a5 5 0 1 0 -10 0z" fill="rgba(10, 183, 155, 1)"></path><path d="M1190 50L1230 10L1270 10" stroke-width="3.33" stroke="rgba(10, 183, 155, 1)"></path><path d="M1185 50 a5 5 0 1 0 10 0 a5 5 0 1 0 -10 0zM1265 10 a5 5 0 1 0 10 0 a5 5 0 1 0 -10 0z" fill="rgba(10, 183, 155, 1)"></path><path d="M330 170L330 110" stroke-width="3.33" stroke="rgba(10, 183, 155, 1)"></path><path d="M325 170 a5 5 0 1 0 10 0 a5 5 0 1 0 -10 0zM325 110 a5 5 0 1 0 10 0 a5 5 0 1 0 -10 0z" fill="rgba(10, 183, 155, 1)"></path><path d="M490 230L490 270" stroke-width="3.33" stroke="rgba(10, 183, 155, 1)"></path><path d="M485 230 a5 5 0 1 0 10 0 a5 5 0 1 0 -10 0zM485 270 a5 5 0 1 0 10 0 a5 5 0 1 0 -10 0z" fill="rgba(10, 183, 155, 1)"></path><path d="M1370 470L1350 450L1290 450L1250 410L1250 350L1290 310" stroke-width="3.33" stroke="rgba(10, 183, 155, 1)"></path><path d="M1365 470 a5 5 0 1 0 10 0 a5 5 0 1 0 -10 0zM1285 310 a5 5 0 1 0 10 0 a5 5 0 1 0 -10 0z" fill="rgba(10, 183, 155, 1)"></path><path d="M210 150L230 170L230 190" stroke-width="3.33" stroke="rgba(10, 183, 155, 1)"></path><path d="M205 150 a5 5 0 1 0 10 0 a5 5 0 1 0 -10 0zM225 190 a5 5 0 1 0 10 0 a5 5 0 1 0 -10 0z" fill="rgba(10, 183, 155, 1)"></path><path d="M130 310L130 270L90 230" stroke-width="3.33" stroke="rgba(10, 183, 155, 1)"></path><path d="M125 310 a5 5 0 1 0 10 0 a5 5 0 1 0 -10 0zM85 230 a5 5 0 1 0 10 0 a5 5 0 1 0 -10 0z" fill="rgba(10, 183, 155, 1)"></path><path d="M770 30L750 10L670 10" stroke-width="3.33" stroke="rgba(10, 183, 155, 1)"></path><path d="M765 30 a5 5 0 1 0 10 0 a5 5 0 1 0 -10 0zM665 10 a5 5 0 1 0 10 0 a5 5 0 1 0 -10 0z" fill="rgba(10, 183, 155, 1)"></path><path d="M1250 530L1270 530L1290 550" stroke-width="3.33" stroke="rgba(10, 183, 155, 1)"></path><path d="M1245 530 a5 5 0 1 0 10 0 a5 5 0 1 0 -10 0zM1285 550 a5 5 0 1 0 10 0 a5 5 0 1 0 -10 0z" fill="rgba(10, 183, 155, 1)"></path><path d="M490 530L510 530L530 510" stroke-width="3.33" stroke="rgba(10, 183, 155, 1)"></path><path d="M485 530 a5 5 0 1 0 10 0 a5 5 0 1 0 -10 0zM525 510 a5 5 0 1 0 10 0 a5 5 0 1 0 -10 0z" fill="rgba(10, 183, 155, 1)"></path><path d="M50 470L70 490L70 510" stroke-width="3.33" stroke="rgba(10, 183, 155, 1)"></path><path d="M45 470 a5 5 0 1 0 10 0 a5 5 0 1 0 -10 0zM65 510 a5 5 0 1 0 10 0 a5 5 0 1 0 -10 0z" fill="rgba(10, 183, 155, 1)"></path><path d="M1330 370L1330 310" stroke-width="3.33" stroke="rgba(10, 183, 155, 1)"></path><path d="M1325 370 a5 5 0 1 0 10 0 a5 5 0 1 0 -10 0zM1325 310 a5 5 0 1 0 10 0 a5 5 0 1 0 -10 0z" fill="rgba(10, 183, 155, 1)"></path><path d="M1390 90L1350 90" stroke-width="3.33" stroke="rgba(10, 183, 155, 1)"></path><path d="M1385 90 a5 5 0 1 0 10 0 a5 5 0 1 0 -10 0zM1345 90 a5 5 0 1 0 10 0 a5 5 0 1 0 -10 0z" fill="rgba(10, 183, 155, 1)"></path><path d="M1310 170L1330 170L1350 150" stroke-width="3.33" stroke="rgba(10, 183, 155, 1)"></path><path d="M1305 170 a5 5 0 1 0 10 0 a5 5 0 1 0 -10 0zM1345 150 a5 5 0 1 0 10 0 a5 5 0 1 0 -10 0z" fill="rgba(10, 183, 155, 1)"></path><path d="M610 430L510 430" stroke-width="3.33" stroke="rgba(10, 183, 155, 1)"></path><path d="M605 430 a5 5 0 1 0 10 0 a5 5 0 1 0 -10 0zM505 430 a5 5 0 1 0 10 0 a5 5 0 1 0 -10 0z" fill="rgba(10, 183, 155, 1)"></path><path d="M330 330L290 330" stroke-width="3.33" stroke="rgba(10, 183, 155, 1)"></path><path d="M325 330 a5 5 0 1 0 10 0 a5 5 0 1 0 -10 0zM285 330 a5 5 0 1 0 10 0 a5 5 0 1 0 -10 0z" fill="rgba(10, 183, 155, 1)"></path><path d="M350 150L350 110" stroke-width="3.33" stroke="rgba(10, 183, 155, 1)"></path><path d="M345 150 a5 5 0 1 0 10 0 a5 5 0 1 0 -10 0zM345 110 a5 5 0 1 0 10 0 a5 5 0 1 0 -10 0z" fill="rgba(10, 183, 155, 1)"></path><path d="M1310 390L1290 410L1290 430" stroke-width="3.33" stroke="rgba(10, 183, 155, 1)"></path><path d="M1305 390 a5 5 0 1 0 10 0 a5 5 0 1 0 -10 0zM1285 430 a5 5 0 1 0 10 0 a5 5 0 1 0 -10 0z" fill="rgba(10, 183, 155, 1)"></path><path d="M510 150L490 150L470 130L410 130" stroke-width="3.33" stroke="rgba(10, 183, 155, 1)"></path><path d="M505 150 a5 5 0 1 0 10 0 a5 5 0 1 0 -10 0zM405 130 a5 5 0 1 0 10 0 a5 5 0 1 0 -10 0z" fill="rgba(10, 183, 155, 1)"></path><path d="M1250 430L1230 410L1230 370" stroke-width="3.33" stroke="rgba(10, 183, 155, 1)"></path><path d="M1245 430 a5 5 0 1 0 10 0 a5 5 0 1 0 -10 0zM1225 370 a5 5 0 1 0 10 0 a5 5 0 1 0 -10 0z" fill="rgba(10, 183, 155, 1)"></path><path d="M1230 530L1210 530L1190 550" stroke-width="3.33" stroke="rgba(10, 183, 155, 1)"></path><path d="M1225 530 a5 5 0 1 0 10 0 a5 5 0 1 0 -10 0zM1185 550 a5 5 0 1 0 10 0 a5 5 0 1 0 -10 0z" fill="rgba(10, 183, 155, 1)"></path><path d="M910 230L930 230L990 170L990 150" stroke-width="3.33" stroke="rgba(10, 183, 155, 1)"></path><path d="M905 230 a5 5 0 1 0 10 0 a5 5 0 1 0 -10 0zM985 150 a5 5 0 1 0 10 0 a5 5 0 1 0 -10 0z" fill="rgba(10, 183, 155, 1)"></path><path d="M710 90L670 90L630 50L630 10" stroke-width="3.33" stroke="rgba(10, 183, 155, 1)"></path><path d="M705 90 a5 5 0 1 0 10 0 a5 5 0 1 0 -10 0zM625 10 a5 5 0 1 0 10 0 a5 5 0 1 0 -10 0z" fill="rgba(10, 183, 155, 1)"></path><path d="M610 130L610 150L590 170L590 190" stroke-width="3.33" stroke="rgba(10, 183, 155, 1)"></path><path d="M605 130 a5 5 0 1 0 10 0 a5 5 0 1 0 -10 0zM585 190 a5 5 0 1 0 10 0 a5 5 0 1 0 -10 0z" fill="rgba(10, 183, 155, 1)"></path><path d="M970 350L950 370L930 370L910 390" stroke-width="3.33" stroke="rgba(10, 183, 155, 1)"></path><path d="M965 350 a5 5 0 1 0 10 0 a5 5 0 1 0 -10 0zM905 390 a5 5 0 1 0 10 0 a5 5 0 1 0 -10 0z" fill="rgba(10, 183, 155, 1)"></path><path d="M670 270L630 270L610 250" stroke-width="3.33" stroke="rgba(10, 183, 155, 1)"></path><path d="M665 270 a5 5 0 1 0 10 0 a5 5 0 1 0 -10 0zM605 250 a5 5 0 1 0 10 0 a5 5 0 1 0 -10 0z" fill="rgba(10, 183, 155, 1)"></path><path d="M1370 490L1330 490L1310 470" stroke-width="3.33" stroke="rgba(10, 183, 155, 1)"></path><path d="M1365 490 a5 5 0 1 0 10 0 a5 5 0 1 0 -10 0zM1305 470 a5 5 0 1 0 10 0 a5 5 0 1 0 -10 0z" fill="rgba(10, 183, 155, 1)"></path><path d="M290 270L310 270L350 310" stroke-width="3.33" stroke="rgba(10, 183, 155, 1)"></path><path d="M285 270 a5 5 0 1 0 10 0 a5 5 0 1 0 -10 0zM345 310 a5 5 0 1 0 10 0 a5 5 0 1 0 -10 0z" fill="rgba(10, 183, 155, 1)"></path><path d="M390 10L410 30L430 30L450 10" stroke-width="3.33" stroke="rgba(10, 183, 155, 1)"></path><path d="M385 10 a5 5 0 1 0 10 0 a5 5 0 1 0 -10 0zM445 10 a5 5 0 1 0 10 0 a5 5 0 1 0 -10 0z" fill="rgba(10, 183, 155, 1)"></path><path d="M50 170L50 150L30 130" stroke-width="3.33" stroke="rgba(10, 183, 155, 1)"></path><path d="M45 170 a5 5 0 1 0 10 0 a5 5 0 1 0 -10 0zM25 130 a5 5 0 1 0 10 0 a5 5 0 1 0 -10 0z" fill="rgba(10, 183, 155, 1)"></path><path d="M50 450L70 450L90 470L110 470" stroke-width="3.33" stroke="rgba(10, 183, 155, 1)"></path><path d="M45 450 a5 5 0 1 0 10 0 a5 5 0 1 0 -10 0zM105 470 a5 5 0 1 0 10 0 a5 5 0 1 0 -10 0z" fill="rgba(10, 183, 155, 1)"></path><path d="M110 30L50 30L30 50L30 90" stroke-width="3.33" stroke="rgba(10, 183, 155, 1)"></path><path d="M105 30 a5 5 0 1 0 10 0 a5 5 0 1 0 -10 0zM25 90 a5 5 0 1 0 10 0 a5 5 0 1 0 -10 0z" fill="rgba(10, 183, 155, 1)"></path><path d="M1050 70L1070 50L1090 50" stroke-width="3.33" stroke="rgba(10, 183, 155, 1)"></path><path d="M1045 70 a5 5 0 1 0 10 0 a5 5 0 1 0 -10 0zM1085 50 a5 5 0 1 0 10 0 a5 5 0 1 0 -10 0z" fill="rgba(10, 183, 155, 1)"></path><path d="M750 190L790 150L830 150L850 170" stroke-width="3.33" stroke="rgba(10, 183, 155, 1)"></path><path d="M745 190 a5 5 0 1 0 10 0 a5 5 0 1 0 -10 0zM845 170 a5 5 0 1 0 10 0 a5 5 0 1 0 -10 0z" fill="rgba(10, 183, 155, 1)"></path><path d="M250 490L210 490L170 530" stroke-width="3.33" stroke="rgba(10, 183, 155, 1)"></path><path d="M245 490 a5 5 0 1 0 10 0 a5 5 0 1 0 -10 0zM165 530 a5 5 0 1 0 10 0 a5 5 0 1 0 -10 0z" fill="rgba(10, 183, 155, 1)"></path><path d="M430 550L470 550" stroke-width="3.33" stroke="rgba(10, 183, 155, 1)"></path><path d="M425 550 a5 5 0 1 0 10 0 a5 5 0 1 0 -10 0zM465 550 a5 5 0 1 0 10 0 a5 5 0 1 0 -10 0z" fill="rgba(10, 183, 155, 1)"></path><path d="M190 530L210 530L230 510L270 510" stroke-width="3.33" stroke="rgba(10, 183, 155, 1)"></path><path d="M185 530 a5 5 0 1 0 10 0 a5 5 0 1 0 -10 0zM265 510 a5 5 0 1 0 10 0 a5 5 0 1 0 -10 0z" fill="rgba(10, 183, 155, 1)"></path><path d="M350 10L330 30L330 70" stroke-width="3.33" stroke="rgba(10, 183, 155, 1)"></path><path d="M345 10 a5 5 0 1 0 10 0 a5 5 0 1 0 -10 0zM325 70 a5 5 0 1 0 10 0 a5 5 0 1 0 -10 0z" fill="rgba(10, 183, 155, 1)"></path><path d="M1370 330L1370 270L1410 230L1410 170" stroke-width="3.33" stroke="rgba(10, 183, 155, 1)"></path><path d="M1365 330 a5 5 0 1 0 10 0 a5 5 0 1 0 -10 0zM1405 170 a5 5 0 1 0 10 0 a5 5 0 1 0 -10 0z" fill="rgba(10, 183, 155, 1)"></path><path d="M530 50L450 50" stroke-width="3.33" stroke="rgba(10, 183, 155, 1)"></path><path d="M525 50 a5 5 0 1 0 10 0 a5 5 0 1 0 -10 0zM445 50 a5 5 0 1 0 10 0 a5 5 0 1 0 -10 0z" fill="rgba(10, 183, 155, 1)"></path><path d="M1310 430L1370 370L1430 370" stroke-width="3.33" stroke="rgba(10, 183, 155, 1)"></path><path d="M1305 430 a5 5 0 1 0 10 0 a5 5 0 1 0 -10 0zM1425 370 a5 5 0 1 0 10 0 a5 5 0 1 0 -10 0z" fill="rgba(10, 183, 155, 1)"></path><path d="M70 90L90 70L90 50" stroke-width="3.33" stroke="rgba(10, 183, 155, 1)"></path><path d="M65 90 a5 5 0 1 0 10 0 a5 5 0 1 0 -10 0zM85 50 a5 5 0 1 0 10 0 a5 5 0 1 0 -10 0z" fill="rgba(10, 183, 155, 1)"></path><path d="M1030 450L990 450" stroke-width="3.33" stroke="rgba(10, 183, 155, 1)"></path><path d="M1025 450 a5 5 0 1 0 10 0 a5 5 0 1 0 -10 0zM985 450 a5 5 0 1 0 10 0 a5 5 0 1 0 -10 0z" fill="rgba(10, 183, 155, 1)"></path><path d="M570 370L590 350L590 310" stroke-width="3.33" stroke="rgba(10, 183, 155, 1)"></path><path d="M565 370 a5 5 0 1 0 10 0 a5 5 0 1 0 -10 0zM585 310 a5 5 0 1 0 10 0 a5 5 0 1 0 -10 0z" fill="rgba(10, 183, 155, 1)"></path><path d="M1250 270L1210 310" stroke-width="3.33" stroke="rgba(10, 183, 155, 1)"></path><path d="M1245 270 a5 5 0 1 0 10 0 a5 5 0 1 0 -10 0zM1205 310 a5 5 0 1 0 10 0 a5 5 0 1 0 -10 0z" fill="rgba(10, 183, 155, 1)"></path><path d="M190 370L230 370" stroke-width="3.33" stroke="rgba(10, 183, 155, 1)"></path><path d="M185 370 a5 5 0 1 0 10 0 a5 5 0 1 0 -10 0zM225 370 a5 5 0 1 0 10 0 a5 5 0 1 0 -10 0z" fill="rgba(10, 183, 155, 1)"></path><path d="M890 530L770 530" stroke-width="3.33" stroke="rgba(10, 183, 155, 1)"></path><path d="M885 530 a5 5 0 1 0 10 0 a5 5 0 1 0 -10 0zM765 530 a5 5 0 1 0 10 0 a5 5 0 1 0 -10 0z" fill="rgba(10, 183, 155, 1)"></path><path d="M950 50L910 90" stroke-width="3.33" stroke="rgba(10, 183, 155, 1)"></path><path d="M945 50 a5 5 0 1 0 10 0 a5 5 0 1 0 -10 0zM905 90 a5 5 0 1 0 10 0 a5 5 0 1 0 -10 0z" fill="rgba(10, 183, 155, 1)"></path><path d="M190 350L210 330L210 310L190 290" stroke-width="3.33" stroke="rgba(10, 183, 155, 1)"></path><path d="M185 350 a5 5 0 1 0 10 0 a5 5 0 1 0 -10 0zM185 290 a5 5 0 1 0 10 0 a5 5 0 1 0 -10 0z" fill="rgba(10, 183, 155, 1)"></path><path d="M1410 90L1430 70L1430 50" stroke-width="3.33" stroke="rgba(10, 183, 155, 1)"></path><path d="M1405 90 a5 5 0 1 0 10 0 a5 5 0 1 0 -10 0zM1425 50 a5 5 0 1 0 10 0 a5 5 0 1 0 -10 0z" fill="rgba(10, 183, 155, 1)"></path><path d="M1270 350L1270 390" stroke-width="3.33" stroke="rgba(10, 183, 155, 1)"></path><path d="M1265 350 a5 5 0 1 0 10 0 a5 5 0 1 0 -10 0zM1265 390 a5 5 0 1 0 10 0 a5 5 0 1 0 -10 0z" fill="rgba(10, 183, 155, 1)"></path><path d="M1430 310L1410 330L1390 330" stroke-width="3.33" stroke="rgba(10, 183, 155, 1)"></path><path d="M1425 310 a5 5 0 1 0 10 0 a5 5 0 1 0 -10 0zM1385 330 a5 5 0 1 0 10 0 a5 5 0 1 0 -10 0z" fill="rgba(10, 183, 155, 1)"></path><path d="M830 10L770 10" stroke-width="3.33" stroke="rgba(10, 183, 155, 1)"></path><path d="M825 10 a5 5 0 1 0 10 0 a5 5 0 1 0 -10 0zM765 10 a5 5 0 1 0 10 0 a5 5 0 1 0 -10 0z" fill="rgba(10, 183, 155, 1)"></path><path d="M1350 370L1350 330" stroke-width="3.33" stroke="rgba(10, 183, 155, 1)"></path><path d="M1345 370 a5 5 0 1 0 10 0 a5 5 0 1 0 -10 0zM1345 330 a5 5 0 1 0 10 0 a5 5 0 1 0 -10 0z" fill="rgba(10, 183, 155, 1)"></path><path d="M1030 490L1010 470L990 470" stroke-width="3.33" stroke="rgba(10, 183, 155, 1)"></path><path d="M1025 490 a5 5 0 1 0 10 0 a5 5 0 1 0 -10 0zM985 470 a5 5 0 1 0 10 0 a5 5 0 1 0 -10 0z" fill="rgba(10, 183, 155, 1)"></path><path d="M1030 50L1030 130" stroke-width="3.33" stroke="rgba(10, 183, 155, 1)"></path><path d="M1025 50 a5 5 0 1 0 10 0 a5 5 0 1 0 -10 0zM1025 130 a5 5 0 1 0 10 0 a5 5 0 1 0 -10 0z" fill="rgba(10, 183, 155, 1)"></path><path d="M730 50L710 30L690 30" stroke-width="3.33" stroke="rgba(10, 183, 155, 1)"></path><path d="M725 50 a5 5 0 1 0 10 0 a5 5 0 1 0 -10 0zM685 30 a5 5 0 1 0 10 0 a5 5 0 1 0 -10 0z" fill="rgba(10, 183, 155, 1)"></path><path d="M470 490L430 490" stroke-width="3.33" stroke="rgba(10, 183, 155, 1)"></path><path d="M465 490 a5 5 0 1 0 10 0 a5 5 0 1 0 -10 0zM425 490 a5 5 0 1 0 10 0 a5 5 0 1 0 -10 0z" fill="rgba(10, 183, 155, 1)"></path><path d="M510 30L550 30L570 50" stroke-width="3.33" stroke="rgba(10, 183, 155, 1)"></path><path d="M505 30 a5 5 0 1 0 10 0 a5 5 0 1 0 -10 0zM565 50 a5 5 0 1 0 10 0 a5 5 0 1 0 -10 0z" fill="rgba(10, 183, 155, 1)"></path><path d="M1210 550L1270 550" stroke-width="3.33" stroke="rgba(10, 183, 155, 1)"></path><path d="M1205 550 a5 5 0 1 0 10 0 a5 5 0 1 0 -10 0zM1265 550 a5 5 0 1 0 10 0 a5 5 0 1 0 -10 0z" fill="rgba(10, 183, 155, 1)"></path><path d="M1430 270L1410 290L1410 310" stroke-width="3.33" stroke="rgba(10, 183, 155, 1)"></path><path d="M1425 270 a5 5 0 1 0 10 0 a5 5 0 1 0 -10 0zM1405 310 a5 5 0 1 0 10 0 a5 5 0 1 0 -10 0z" fill="rgba(10, 183, 155, 1)"></path></g></g><defs><mask id="SvgjsMask1002"><rect width="1440" height="560" fill="#ffffff"></rect></mask><mask id="SvgjsMask1003"><rect width="1440" height="560" fill="white"></rect><path d="M667.5 170 a2.5 2.5 0 1 0 5 0 a2.5 2.5 0 1 0 -5 0zM327.5 450 a2.5 2.5 0 1 0 5 0 a2.5 2.5 0 1 0 -5 0z" fill="black"></path><path d="M1347.5 290 a2.5 2.5 0 1 0 5 0 a2.5 2.5 0 1 0 -5 0zM1387.5 10 a2.5 2.5 0 1 0 5 0 a2.5 2.5 0 1 0 -5 0z" fill="black"></path><path d="M1127.5 130 a2.5 2.5 0 1 0 5 0 a2.5 2.5 0 1 0 -5 0zM1127.5 10 a2.5 2.5 0 1 0 5 0 a2.5 2.5 0 1 0 -5 0z" fill="black"></path><path d="M267.5 370 a2.5 2.5 0 1 0 5 0 a2.5 2.5 0 1 0 -5 0zM247.5 10 a2.5 2.5 0 1 0 5 0 a2.5 2.5 0 1 0 -5 0z" fill="black"></path><path d="M1327.5 510 a2.5 2.5 0 1 0 5 0 a2.5 2.5 0 1 0 -5 0zM947.5 550 a2.5 2.5 0 1 0 5 0 a2.5 2.5 0 1 0 -5 0z" fill="black"></path><path d="M1307.5 70 a2.5 2.5 0 1 0 5 0 a2.5 2.5 0 1 0 -5 0zM1227.5 150 a2.5 2.5 0 1 0 5 0 a2.5 2.5 0 1 0 -5 0z" fill="black"></path><path d="M907.5 450 a2.5 2.5 0 1 0 5 0 a2.5 2.5 0 1 0 -5 0zM1167.5 110 a2.5 2.5 0 1 0 5 0 a2.5 2.5 0 1 0 -5 0z" fill="black"></path><path d="M1107.5 230 a2.5 2.5 0 1 0 5 0 a2.5 2.5 0 1 0 -5 0zM967.5 530 a2.5 2.5 0 1 0 5 0 a2.5 2.5 0 1 0 -5 0z" fill="black"></path><path d="M47.5 10 a2.5 2.5 0 1 0 5 0 a2.5 2.5 0 1 0 -5 0zM167.5 350 a2.5 2.5 0 1 0 5 0 a2.5 2.5 0 1 0 -5 0z" fill="black"></path><path d="M947.5 110 a2.5 2.5 0 1 0 5 0 a2.5 2.5 0 1 0 -5 0zM707.5 290 a2.5 2.5 0 1 0 5 0 a2.5 2.5 0 1 0 -5 0z" fill="black"></path><path d="M1047.5 150 a2.5 2.5 0 1 0 5 0 a2.5 2.5 0 1 0 -5 0zM967.5 510 a2.5 2.5 0 1 0 5 0 a2.5 2.5 0 1 0 -5 0z" fill="black"></path><path d="M527.5 390 a2.5 2.5 0 1 0 5 0 a2.5 2.5 0 1 0 -5 0zM847.5 470 a2.5 2.5 0 1 0 5 0 a2.5 2.5 0 1 0 -5 0z" fill="black"></path><path d="M987.5 30 a2.5 2.5 0 1 0 5 0 a2.5 2.5 0 1 0 -5 0zM1107.5 30 a2.5 2.5 0 1 0 5 0 a2.5 2.5 0 1 0 -5 0z" fill="black"></path><path d="M1127.5 410 a2.5 2.5 0 1 0 5 0 a2.5 2.5 0 1 0 -5 0zM1227.5 30 a2.5 2.5 0 1 0 5 0 a2.5 2.5 0 1 0 -5 0z" fill="black"></path><path d="M67.5 270 a2.5 2.5 0 1 0 5 0 a2.5 2.5 0 1 0 -5 0zM227.5 50 a2.5 2.5 0 1 0 5 0 a2.5 2.5 0 1 0 -5 0z" fill="black"></path><path d="M147.5 210 a2.5 2.5 0 1 0 5 0 a2.5 2.5 0 1 0 -5 0zM227.5 70 a2.5 2.5 0 1 0 5 0 a2.5 2.5 0 1 0 -5 0z" fill="black"></path><path d="M1067.5 370 a2.5 2.5 0 1 0 5 0 a2.5 2.5 0 1 0 -5 0zM927.5 470 a2.5 2.5 0 1 0 5 0 a2.5 2.5 0 1 0 -5 0z" fill="black"></path><path d="M1207.5 210 a2.5 2.5 0 1 0 5 0 a2.5 2.5 0 1 0 -5 0zM1127.5 450 a2.5 2.5 0 1 0 5 0 a2.5 2.5 0 1 0 -5 0z" fill="black"></path><path d="M1027.5 390 a2.5 2.5 0 1 0 5 0 a2.5 2.5 0 1 0 -5 0zM1067.5 390 a2.5 2.5 0 1 0 5 0 a2.5 2.5 0 1 0 -5 0z" fill="black"></path><path d="M1327.5 430 a2.5 2.5 0 1 0 5 0 a2.5 2.5 0 1 0 -5 0zM1427.5 430 a2.5 2.5 0 1 0 5 0 a2.5 2.5 0 1 0 -5 0z" fill="black"></path><path d="M507.5 490 a2.5 2.5 0 1 0 5 0 a2.5 2.5 0 1 0 -5 0zM887.5 510 a2.5 2.5 0 1 0 5 0 a2.5 2.5 0 1 0 -5 0z" fill="black"></path><path d="M1287.5 150 a2.5 2.5 0 1 0 5 0 a2.5 2.5 0 1 0 -5 0zM1427.5 30 a2.5 2.5 0 1 0 5 0 a2.5 2.5 0 1 0 -5 0z" fill="black"></path><path d="M467.5 290 a2.5 2.5 0 1 0 5 0 a2.5 2.5 0 1 0 -5 0zM147.5 370 a2.5 2.5 0 1 0 5 0 a2.5 2.5 0 1 0 -5 0z" fill="black"></path><path d="M427.5 70 a2.5 2.5 0 1 0 5 0 a2.5 2.5 0 1 0 -5 0zM547.5 270 a2.5 2.5 0 1 0 5 0 a2.5 2.5 0 1 0 -5 0z" fill="black"></path><path d="M827.5 210 a2.5 2.5 0 1 0 5 0 a2.5 2.5 0 1 0 -5 0zM727.5 210 a2.5 2.5 0 1 0 5 0 a2.5 2.5 0 1 0 -5 0z" fill="black"></path><path d="M647.5 370 a2.5 2.5 0 1 0 5 0 a2.5 2.5 0 1 0 -5 0zM1027.5 210 a2.5 2.5 0 1 0 5 0 a2.5 2.5 0 1 0 -5 0z" fill="black"></path><path d="M1287.5 490 a2.5 2.5 0 1 0 5 0 a2.5 2.5 0 1 0 -5 0zM1067.5 550 a2.5 2.5 0 1 0 5 0 a2.5 2.5 0 1 0 -5 0z" fill="black"></path><path d="M1207.5 490 a2.5 2.5 0 1 0 5 0 a2.5 2.5 0 1 0 -5 0zM1407.5 450 a2.5 2.5 0 1 0 5 0 a2.5 2.5 0 1 0 -5 0z" fill="black"></path><path d="M7.5 330 a2.5 2.5 0 1 0 5 0 a2.5 2.5 0 1 0 -5 0zM187.5 550 a2.5 2.5 0 1 0 5 0 a2.5 2.5 0 1 0 -5 0z" fill="black"></path><path d="M1007.5 130 a2.5 2.5 0 1 0 5 0 a2.5 2.5 0 1 0 -5 0zM1007.5 50 a2.5 2.5 0 1 0 5 0 a2.5 2.5 0 1 0 -5 0z" fill="black"></path><path d="M547.5 550 a2.5 2.5 0 1 0 5 0 a2.5 2.5 0 1 0 -5 0zM547.5 510 a2.5 2.5 0 1 0 5 0 a2.5 2.5 0 1 0 -5 0z" fill="black"></path><path d="M607.5 170 a2.5 2.5 0 1 0 5 0 a2.5 2.5 0 1 0 -5 0zM327.5 90 a2.5 2.5 0 1 0 5 0 a2.5 2.5 0 1 0 -5 0z" fill="black"></path><path d="M387.5 110 a2.5 2.5 0 1 0 5 0 a2.5 2.5 0 1 0 -5 0zM627.5 150 a2.5 2.5 0 1 0 5 0 a2.5 2.5 0 1 0 -5 0z" fill="black"></path><path d="M887.5 30 a2.5 2.5 0 1 0 5 0 a2.5 2.5 0 1 0 -5 0zM787.5 330 a2.5 2.5 0 1 0 5 0 a2.5 2.5 0 1 0 -5 0z" fill="black"></path><path d="M687.5 130 a2.5 2.5 0 1 0 5 0 a2.5 2.5 0 1 0 -5 0zM687.5 350 a2.5 2.5 0 1 0 5 0 a2.5 2.5 0 1 0 -5 0z" fill="black"></path><path d="M167.5 110 a2.5 2.5 0 1 0 5 0 a2.5 2.5 0 1 0 -5 0zM227.5 90 a2.5 2.5 0 1 0 5 0 a2.5 2.5 0 1 0 -5 0z" fill="black"></path><path d="M1047.5 90 a2.5 2.5 0 1 0 5 0 a2.5 2.5 0 1 0 -5 0zM707.5 330 a2.5 2.5 0 1 0 5 0 a2.5 2.5 0 1 0 -5 0z" fill="black"></path><path d="M1227.5 110 a2.5 2.5 0 1 0 5 0 a2.5 2.5 0 1 0 -5 0zM1347.5 30 a2.5 2.5 0 1 0 5 0 a2.5 2.5 0 1 0 -5 0z" fill="black"></path><path d="M367.5 310 a2.5 2.5 0 1 0 5 0 a2.5 2.5 0 1 0 -5 0zM287.5 10 a2.5 2.5 0 1 0 5 0 a2.5 2.5 0 1 0 -5 0z" fill="black"></path><path d="M887.5 490 a2.5 2.5 0 1 0 5 0 a2.5 2.5 0 1 0 -5 0zM947.5 530 a2.5 2.5 0 1 0 5 0 a2.5 2.5 0 1 0 -5 0z" fill="black"></path><path d="M167.5 310 a2.5 2.5 0 1 0 5 0 a2.5 2.5 0 1 0 -5 0zM87.5 170 a2.5 2.5 0 1 0 5 0 a2.5 2.5 0 1 0 -5 0z" fill="black"></path><path d="M647.5 10 a2.5 2.5 0 1 0 5 0 a2.5 2.5 0 1 0 -5 0zM707.5 130 a2.5 2.5 0 1 0 5 0 a2.5 2.5 0 1 0 -5 0z" fill="black"></path><path d="M287.5 510 a2.5 2.5 0 1 0 5 0 a2.5 2.5 0 1 0 -5 0zM267.5 550 a2.5 2.5 0 1 0 5 0 a2.5 2.5 0 1 0 -5 0z" fill="black"></path><path d="M727.5 470 a2.5 2.5 0 1 0 5 0 a2.5 2.5 0 1 0 -5 0zM827.5 410 a2.5 2.5 0 1 0 5 0 a2.5 2.5 0 1 0 -5 0z" fill="black"></path><path d="M507.5 190 a2.5 2.5 0 1 0 5 0 a2.5 2.5 0 1 0 -5 0zM367.5 110 a2.5 2.5 0 1 0 5 0 a2.5 2.5 0 1 0 -5 0z" fill="black"></path><path d="M1187.5 290 a2.5 2.5 0 1 0 5 0 a2.5 2.5 0 1 0 -5 0zM1187.5 430 a2.5 2.5 0 1 0 5 0 a2.5 2.5 0 1 0 -5 0z" fill="black"></path><path d="M1307.5 210 a2.5 2.5 0 1 0 5 0 a2.5 2.5 0 1 0 -5 0zM1247.5 170 a2.5 2.5 0 1 0 5 0 a2.5 2.5 0 1 0 -5 0z" fill="black"></path><path d="M767.5 550 a2.5 2.5 0 1 0 5 0 a2.5 2.5 0 1 0 -5 0zM927.5 550 a2.5 2.5 0 1 0 5 0 a2.5 2.5 0 1 0 -5 0z" fill="black"></path><path d="M907.5 170 a2.5 2.5 0 1 0 5 0 a2.5 2.5 0 1 0 -5 0zM707.5 310 a2.5 2.5 0 1 0 5 0 a2.5 2.5 0 1 0 -5 0z" fill="black"></path><path d="M927.5 130 a2.5 2.5 0 1 0 5 0 a2.5 2.5 0 1 0 -5 0zM727.5 190 a2.5 2.5 0 1 0 5 0 a2.5 2.5 0 1 0 -5 0z" fill="black"></path><path d="M47.5 390 a2.5 2.5 0 1 0 5 0 a2.5 2.5 0 1 0 -5 0zM7.5 250 a2.5 2.5 0 1 0 5 0 a2.5 2.5 0 1 0 -5 0z" fill="black"></path><path d="M1167.5 530 a2.5 2.5 0 1 0 5 0 a2.5 2.5 0 1 0 -5 0zM1307.5 550 a2.5 2.5 0 1 0 5 0 a2.5 2.5 0 1 0 -5 0z" fill="black"></path><path d="M1047.5 350 a2.5 2.5 0 1 0 5 0 a2.5 2.5 0 1 0 -5 0zM1087.5 350 a2.5 2.5 0 1 0 5 0 a2.5 2.5 0 1 0 -5 0z" fill="black"></path><path d="M567.5 290 a2.5 2.5 0 1 0 5 0 a2.5 2.5 0 1 0 -5 0zM667.5 350 a2.5 2.5 0 1 0 5 0 a2.5 2.5 0 1 0 -5 0z" fill="black"></path><path d="M747.5 50 a2.5 2.5 0 1 0 5 0 a2.5 2.5 0 1 0 -5 0zM747.5 90 a2.5 2.5 0 1 0 5 0 a2.5 2.5 0 1 0 -5 0z" fill="black"></path><path d="M247.5 310 a2.5 2.5 0 1 0 5 0 a2.5 2.5 0 1 0 -5 0zM227.5 110 a2.5 2.5 0 1 0 5 0 a2.5 2.5 0 1 0 -5 0z" fill="black"></path><path d="M207.5 390 a2.5 2.5 0 1 0 5 0 a2.5 2.5 0 1 0 -5 0zM447.5 330 a2.5 2.5 0 1 0 5 0 a2.5 2.5 0 1 0 -5 0z" fill="black"></path><path d="M107.5 490 a2.5 2.5 0 1 0 5 0 a2.5 2.5 0 1 0 -5 0zM47.5 530 a2.5 2.5 0 1 0 5 0 a2.5 2.5 0 1 0 -5 0z" fill="black"></path><path d="M527.5 170 a2.5 2.5 0 1 0 5 0 a2.5 2.5 0 1 0 -5 0zM487.5 370 a2.5 2.5 0 1 0 5 0 a2.5 2.5 0 1 0 -5 0z" fill="black"></path><path d="M1187.5 250 a2.5 2.5 0 1 0 5 0 a2.5 2.5 0 1 0 -5 0zM1147.5 250 a2.5 2.5 0 1 0 5 0 a2.5 2.5 0 1 0 -5 0z" fill="black"></path><path d="M727.5 270 a2.5 2.5 0 1 0 5 0 a2.5 2.5 0 1 0 -5 0zM727.5 230 a2.5 2.5 0 1 0 5 0 a2.5 2.5 0 1 0 -5 0z" fill="black"></path><path d="M1047.5 410 a2.5 2.5 0 1 0 5 0 a2.5 2.5 0 1 0 -5 0zM1047.5 490 a2.5 2.5 0 1 0 5 0 a2.5 2.5 0 1 0 -5 0z" fill="black"></path><path d="M847.5 10 a2.5 2.5 0 1 0 5 0 a2.5 2.5 0 1 0 -5 0zM807.5 90 a2.5 2.5 0 1 0 5 0 a2.5 2.5 0 1 0 -5 0z" fill="black"></path><path d="M567.5 350 a2.5 2.5 0 1 0 5 0 a2.5 2.5 0 1 0 -5 0zM527.5 350 a2.5 2.5 0 1 0 5 0 a2.5 2.5 0 1 0 -5 0z" fill="black"></path><path d="M487.5 510 a2.5 2.5 0 1 0 5 0 a2.5 2.5 0 1 0 -5 0zM507.5 390 a2.5 2.5 0 1 0 5 0 a2.5 2.5 0 1 0 -5 0z" fill="black"></path><path d="M847.5 210 a2.5 2.5 0 1 0 5 0 a2.5 2.5 0 1 0 -5 0zM967.5 50 a2.5 2.5 0 1 0 5 0 a2.5 2.5 0 1 0 -5 0z" fill="black"></path><path d="M627.5 510 a2.5 2.5 0 1 0 5 0 a2.5 2.5 0 1 0 -5 0zM687.5 550 a2.5 2.5 0 1 0 5 0 a2.5 2.5 0 1 0 -5 0z" fill="black"></path><path d="M367.5 170 a2.5 2.5 0 1 0 5 0 a2.5 2.5 0 1 0 -5 0zM447.5 310 a2.5 2.5 0 1 0 5 0 a2.5 2.5 0 1 0 -5 0z" fill="black"></path><path d="M167.5 430 a2.5 2.5 0 1 0 5 0 a2.5 2.5 0 1 0 -5 0zM147.5 530 a2.5 2.5 0 1 0 5 0 a2.5 2.5 0 1 0 -5 0z" fill="black"></path><path d="M127.5 470 a2.5 2.5 0 1 0 5 0 a2.5 2.5 0 1 0 -5 0zM127.5 530 a2.5 2.5 0 1 0 5 0 a2.5 2.5 0 1 0 -5 0z" fill="black"></path><path d="M587.5 550 a2.5 2.5 0 1 0 5 0 a2.5 2.5 0 1 0 -5 0zM667.5 550 a2.5 2.5 0 1 0 5 0 a2.5 2.5 0 1 0 -5 0z" fill="black"></path><path d="M507.5 130 a2.5 2.5 0 1 0 5 0 a2.5 2.5 0 1 0 -5 0zM587.5 210 a2.5 2.5 0 1 0 5 0 a2.5 2.5 0 1 0 -5 0z" fill="black"></path><path d="M387.5 250 a2.5 2.5 0 1 0 5 0 a2.5 2.5 0 1 0 -5 0zM307.5 10 a2.5 2.5 0 1 0 5 0 a2.5 2.5 0 1 0 -5 0z" fill="black"></path><path d="M267.5 150 a2.5 2.5 0 1 0 5 0 a2.5 2.5 0 1 0 -5 0zM267.5 10 a2.5 2.5 0 1 0 5 0 a2.5 2.5 0 1 0 -5 0z" fill="black"></path><path d="M1387.5 110 a2.5 2.5 0 1 0 5 0 a2.5 2.5 0 1 0 -5 0zM1307.5 110 a2.5 2.5 0 1 0 5 0 a2.5 2.5 0 1 0 -5 0z" fill="black"></path><path d="M127.5 230 a2.5 2.5 0 1 0 5 0 a2.5 2.5 0 1 0 -5 0zM107.5 190 a2.5 2.5 0 1 0 5 0 a2.5 2.5 0 1 0 -5 0z" fill="black"></path><path d="M1427.5 130 a2.5 2.5 0 1 0 5 0 a2.5 2.5 0 1 0 -5 0zM1307.5 130 a2.5 2.5 0 1 0 5 0 a2.5 2.5 0 1 0 -5 0z" fill="black"></path><path d="M1287.5 290 a2.5 2.5 0 1 0 5 0 a2.5 2.5 0 1 0 -5 0zM1207.5 430 a2.5 2.5 0 1 0 5 0 a2.5 2.5 0 1 0 -5 0z" fill="black"></path><path d="M247.5 210 a2.5 2.5 0 1 0 5 0 a2.5 2.5 0 1 0 -5 0zM187.5 210 a2.5 2.5 0 1 0 5 0 a2.5 2.5 0 1 0 -5 0z" fill="black"></path><path d="M1007.5 370 a2.5 2.5 0 1 0 5 0 a2.5 2.5 0 1 0 -5 0zM887.5 430 a2.5 2.5 0 1 0 5 0 a2.5 2.5 0 1 0 -5 0z" fill="black"></path><path d="M467.5 530 a2.5 2.5 0 1 0 5 0 a2.5 2.5 0 1 0 -5 0zM527.5 550 a2.5 2.5 0 1 0 5 0 a2.5 2.5 0 1 0 -5 0z" fill="black"></path><path d="M607.5 310 a2.5 2.5 0 1 0 5 0 a2.5 2.5 0 1 0 -5 0zM607.5 370 a2.5 2.5 0 1 0 5 0 a2.5 2.5 0 1 0 -5 0z" fill="black"></path><path d="M1187.5 530 a2.5 2.5 0 1 0 5 0 a2.5 2.5 0 1 0 -5 0zM1087.5 550 a2.5 2.5 0 1 0 5 0 a2.5 2.5 0 1 0 -5 0z" fill="black"></path><path d="M1267.5 410 a2.5 2.5 0 1 0 5 0 a2.5 2.5 0 1 0 -5 0zM1247.5 210 a2.5 2.5 0 1 0 5 0 a2.5 2.5 0 1 0 -5 0z" fill="black"></path><path d="M27.5 110 a2.5 2.5 0 1 0 5 0 a2.5 2.5 0 1 0 -5 0zM227.5 10 a2.5 2.5 0 1 0 5 0 a2.5 2.5 0 1 0 -5 0z" fill="black"></path><path d="M947.5 390 a2.5 2.5 0 1 0 5 0 a2.5 2.5 0 1 0 -5 0zM887.5 410 a2.5 2.5 0 1 0 5 0 a2.5 2.5 0 1 0 -5 0z" fill="black"></path><path d="M567.5 10 a2.5 2.5 0 1 0 5 0 a2.5 2.5 0 1 0 -5 0zM707.5 110 a2.5 2.5 0 1 0 5 0 a2.5 2.5 0 1 0 -5 0z" fill="black"></path><path d="M1347.5 530 a2.5 2.5 0 1 0 5 0 a2.5 2.5 0 1 0 -5 0zM1387.5 450 a2.5 2.5 0 1 0 5 0 a2.5 2.5 0 1 0 -5 0z" fill="black"></path><path d="M1427.5 510 a2.5 2.5 0 1 0 5 0 a2.5 2.5 0 1 0 -5 0zM1387.5 550 a2.5 2.5 0 1 0 5 0 a2.5 2.5 0 1 0 -5 0z" fill="black"></path><path d="M147.5 250 a2.5 2.5 0 1 0 5 0 a2.5 2.5 0 1 0 -5 0zM247.5 370 a2.5 2.5 0 1 0 5 0 a2.5 2.5 0 1 0 -5 0z" fill="black"></path><path d="M467.5 170 a2.5 2.5 0 1 0 5 0 a2.5 2.5 0 1 0 -5 0zM507.5 170 a2.5 2.5 0 1 0 5 0 a2.5 2.5 0 1 0 -5 0z" fill="black"></path><path d="M1187.5 190 a2.5 2.5 0 1 0 5 0 a2.5 2.5 0 1 0 -5 0zM1167.5 230 a2.5 2.5 0 1 0 5 0 a2.5 2.5 0 1 0 -5 0z" fill="black"></path><path d="M307.5 190 a2.5 2.5 0 1 0 5 0 a2.5 2.5 0 1 0 -5 0zM427.5 310 a2.5 2.5 0 1 0 5 0 a2.5 2.5 0 1 0 -5 0z" fill="black"></path><path d="M1027.5 10 a2.5 2.5 0 1 0 5 0 a2.5 2.5 0 1 0 -5 0zM827.5 90 a2.5 2.5 0 1 0 5 0 a2.5 2.5 0 1 0 -5 0z" fill="black"></path><path d="M307.5 410 a2.5 2.5 0 1 0 5 0 a2.5 2.5 0 1 0 -5 0zM207.5 410 a2.5 2.5 0 1 0 5 0 a2.5 2.5 0 1 0 -5 0z" fill="black"></path><path d="M567.5 410 a2.5 2.5 0 1 0 5 0 a2.5 2.5 0 1 0 -5 0zM507.5 410 a2.5 2.5 0 1 0 5 0 a2.5 2.5 0 1 0 -5 0z" fill="black"></path><path d="M1007.5 270 a2.5 2.5 0 1 0 5 0 a2.5 2.5 0 1 0 -5 0zM887.5 390 a2.5 2.5 0 1 0 5 0 a2.5 2.5 0 1 0 -5 0z" fill="black"></path><path d="M1227.5 310 a2.5 2.5 0 1 0 5 0 a2.5 2.5 0 1 0 -5 0zM1207.5 350 a2.5 2.5 0 1 0 5 0 a2.5 2.5 0 1 0 -5 0z" fill="black"></path><path d="M167.5 510 a2.5 2.5 0 1 0 5 0 a2.5 2.5 0 1 0 -5 0zM467.5 510 a2.5 2.5 0 1 0 5 0 a2.5 2.5 0 1 0 -5 0z" fill="black"></path><path d="M807.5 430 a2.5 2.5 0 1 0 5 0 a2.5 2.5 0 1 0 -5 0zM747.5 430 a2.5 2.5 0 1 0 5 0 a2.5 2.5 0 1 0 -5 0z" fill="black"></path><path d="M147.5 150 a2.5 2.5 0 1 0 5 0 a2.5 2.5 0 1 0 -5 0zM107.5 130 a2.5 2.5 0 1 0 5 0 a2.5 2.5 0 1 0 -5 0z" fill="black"></path><path d="M1207.5 250 a2.5 2.5 0 1 0 5 0 a2.5 2.5 0 1 0 -5 0zM1167.5 430 a2.5 2.5 0 1 0 5 0 a2.5 2.5 0 1 0 -5 0z" fill="black"></path><path d="M867.5 290 a2.5 2.5 0 1 0 5 0 a2.5 2.5 0 1 0 -5 0zM1027.5 170 a2.5 2.5 0 1 0 5 0 a2.5 2.5 0 1 0 -5 0z" fill="black"></path><path d="M807.5 350 a2.5 2.5 0 1 0 5 0 a2.5 2.5 0 1 0 -5 0zM887.5 330 a2.5 2.5 0 1 0 5 0 a2.5 2.5 0 1 0 -5 0z" fill="black"></path><path d="M87.5 450 a2.5 2.5 0 1 0 5 0 a2.5 2.5 0 1 0 -5 0zM167.5 410 a2.5 2.5 0 1 0 5 0 a2.5 2.5 0 1 0 -5 0z" fill="black"></path><path d="M807.5 230 a2.5 2.5 0 1 0 5 0 a2.5 2.5 0 1 0 -5 0zM727.5 310 a2.5 2.5 0 1 0 5 0 a2.5 2.5 0 1 0 -5 0z" fill="black"></path><path d="M707.5 470 a2.5 2.5 0 1 0 5 0 a2.5 2.5 0 1 0 -5 0zM707.5 410 a2.5 2.5 0 1 0 5 0 a2.5 2.5 0 1 0 -5 0z" fill="black"></path><path d="M787.5 470 a2.5 2.5 0 1 0 5 0 a2.5 2.5 0 1 0 -5 0zM747.5 450 a2.5 2.5 0 1 0 5 0 a2.5 2.5 0 1 0 -5 0z" fill="black"></path><path d="M447.5 270 a2.5 2.5 0 1 0 5 0 a2.5 2.5 0 1 0 -5 0zM447.5 210 a2.5 2.5 0 1 0 5 0 a2.5 2.5 0 1 0 -5 0z" fill="black"></path><path d="M507.5 250 a2.5 2.5 0 1 0 5 0 a2.5 2.5 0 1 0 -5 0zM507.5 210 a2.5 2.5 0 1 0 5 0 a2.5 2.5 0 1 0 -5 0z" fill="black"></path><path d="M1287.5 70 a2.5 2.5 0 1 0 5 0 a2.5 2.5 0 1 0 -5 0zM1247.5 110 a2.5 2.5 0 1 0 5 0 a2.5 2.5 0 1 0 -5 0z" fill="black"></path><path d="M467.5 430 a2.5 2.5 0 1 0 5 0 a2.5 2.5 0 1 0 -5 0zM267.5 450 a2.5 2.5 0 1 0 5 0 a2.5 2.5 0 1 0 -5 0z" fill="black"></path><path d="M447.5 410 a2.5 2.5 0 1 0 5 0 a2.5 2.5 0 1 0 -5 0zM287.5 450 a2.5 2.5 0 1 0 5 0 a2.5 2.5 0 1 0 -5 0z" fill="black"></path><path d="M287.5 370 a2.5 2.5 0 1 0 5 0 a2.5 2.5 0 1 0 -5 0zM367.5 330 a2.5 2.5 0 1 0 5 0 a2.5 2.5 0 1 0 -5 0z" fill="black"></path><path d="M1107.5 210 a2.5 2.5 0 1 0 5 0 a2.5 2.5 0 1 0 -5 0zM1047.5 330 a2.5 2.5 0 1 0 5 0 a2.5 2.5 0 1 0 -5 0z" fill="black"></path><path d="M27.5 390 a2.5 2.5 0 1 0 5 0 a2.5 2.5 0 1 0 -5 0zM147.5 390 a2.5 2.5 0 1 0 5 0 a2.5 2.5 0 1 0 -5 0z" fill="black"></path><path d="M527.5 470 a2.5 2.5 0 1 0 5 0 a2.5 2.5 0 1 0 -5 0zM767.5 470 a2.5 2.5 0 1 0 5 0 a2.5 2.5 0 1 0 -5 0z" fill="black"></path><path d="M367.5 270 a2.5 2.5 0 1 0 5 0 a2.5 2.5 0 1 0 -5 0zM407.5 310 a2.5 2.5 0 1 0 5 0 a2.5 2.5 0 1 0 -5 0z" fill="black"></path><path d="M327.5 530 a2.5 2.5 0 1 0 5 0 a2.5 2.5 0 1 0 -5 0zM287.5 550 a2.5 2.5 0 1 0 5 0 a2.5 2.5 0 1 0 -5 0z" fill="black"></path><path d="M1367.5 150 a2.5 2.5 0 1 0 5 0 a2.5 2.5 0 1 0 -5 0zM1267.5 130 a2.5 2.5 0 1 0 5 0 a2.5 2.5 0 1 0 -5 0z" fill="black"></path><path d="M367.5 390 a2.5 2.5 0 1 0 5 0 a2.5 2.5 0 1 0 -5 0zM327.5 410 a2.5 2.5 0 1 0 5 0 a2.5 2.5 0 1 0 -5 0z" fill="black"></path><path d="M1127.5 530 a2.5 2.5 0 1 0 5 0 a2.5 2.5 0 1 0 -5 0zM1187.5 490 a2.5 2.5 0 1 0 5 0 a2.5 2.5 0 1 0 -5 0z" fill="black"></path><path d="M567.5 550 a2.5 2.5 0 1 0 5 0 a2.5 2.5 0 1 0 -5 0zM587.5 510 a2.5 2.5 0 1 0 5 0 a2.5 2.5 0 1 0 -5 0z" fill="black"></path><path d="M787.5 50 a2.5 2.5 0 1 0 5 0 a2.5 2.5 0 1 0 -5 0zM767.5 90 a2.5 2.5 0 1 0 5 0 a2.5 2.5 0 1 0 -5 0z" fill="black"></path><path d="M387.5 30 a2.5 2.5 0 1 0 5 0 a2.5 2.5 0 1 0 -5 0zM587.5 50 a2.5 2.5 0 1 0 5 0 a2.5 2.5 0 1 0 -5 0z" fill="black"></path><path d="M987.5 330 a2.5 2.5 0 1 0 5 0 a2.5 2.5 0 1 0 -5 0zM1007.5 290 a2.5 2.5 0 1 0 5 0 a2.5 2.5 0 1 0 -5 0z" fill="black"></path><path d="M367.5 370 a2.5 2.5 0 1 0 5 0 a2.5 2.5 0 1 0 -5 0zM427.5 350 a2.5 2.5 0 1 0 5 0 a2.5 2.5 0 1 0 -5 0z" fill="black"></path><path d="M1367.5 350 a2.5 2.5 0 1 0 5 0 a2.5 2.5 0 1 0 -5 0zM1427.5 350 a2.5 2.5 0 1 0 5 0 a2.5 2.5 0 1 0 -5 0z" fill="black"></path><path d="M1107.5 10 a2.5 2.5 0 1 0 5 0 a2.5 2.5 0 1 0 -5 0zM1067.5 10 a2.5 2.5 0 1 0 5 0 a2.5 2.5 0 1 0 -5 0z" fill="black"></path><path d="M1347.5 210 a2.5 2.5 0 1 0 5 0 a2.5 2.5 0 1 0 -5 0zM1427.5 150 a2.5 2.5 0 1 0 5 0 a2.5 2.5 0 1 0 -5 0z" fill="black"></path><path d="M527.5 450 a2.5 2.5 0 1 0 5 0 a2.5 2.5 0 1 0 -5 0zM687.5 450 a2.5 2.5 0 1 0 5 0 a2.5 2.5 0 1 0 -5 0z" fill="black"></path><path d="M347.5 170 a2.5 2.5 0 1 0 5 0 a2.5 2.5 0 1 0 -5 0zM387.5 230 a2.5 2.5 0 1 0 5 0 a2.5 2.5 0 1 0 -5 0z" fill="black"></path><path d="M1067.5 330 a2.5 2.5 0 1 0 5 0 a2.5 2.5 0 1 0 -5 0zM1087.5 230 a2.5 2.5 0 1 0 5 0 a2.5 2.5 0 1 0 -5 0z" fill="black"></path><path d="M1087.5 130 a2.5 2.5 0 1 0 5 0 a2.5 2.5 0 1 0 -5 0zM1107.5 50 a2.5 2.5 0 1 0 5 0 a2.5 2.5 0 1 0 -5 0z" fill="black"></path><path d="M67.5 350 a2.5 2.5 0 1 0 5 0 a2.5 2.5 0 1 0 -5 0zM67.5 410 a2.5 2.5 0 1 0 5 0 a2.5 2.5 0 1 0 -5 0z" fill="black"></path><path d="M787.5 190 a2.5 2.5 0 1 0 5 0 a2.5 2.5 0 1 0 -5 0zM887.5 150 a2.5 2.5 0 1 0 5 0 a2.5 2.5 0 1 0 -5 0z" fill="black"></path><path d="M467.5 150 a2.5 2.5 0 1 0 5 0 a2.5 2.5 0 1 0 -5 0zM407.5 170 a2.5 2.5 0 1 0 5 0 a2.5 2.5 0 1 0 -5 0z" fill="black"></path><path d="M247.5 190 a2.5 2.5 0 1 0 5 0 a2.5 2.5 0 1 0 -5 0zM187.5 130 a2.5 2.5 0 1 0 5 0 a2.5 2.5 0 1 0 -5 0z" fill="black"></path><path d="M807.5 470 a2.5 2.5 0 1 0 5 0 a2.5 2.5 0 1 0 -5 0zM887.5 470 a2.5 2.5 0 1 0 5 0 a2.5 2.5 0 1 0 -5 0z" fill="black"></path><path d="M587.5 130 a2.5 2.5 0 1 0 5 0 a2.5 2.5 0 1 0 -5 0zM547.5 130 a2.5 2.5 0 1 0 5 0 a2.5 2.5 0 1 0 -5 0z" fill="black"></path><path d="M747.5 250 a2.5 2.5 0 1 0 5 0 a2.5 2.5 0 1 0 -5 0zM747.5 290 a2.5 2.5 0 1 0 5 0 a2.5 2.5 0 1 0 -5 0z" fill="black"></path><path d="M1287.5 270 a2.5 2.5 0 1 0 5 0 a2.5 2.5 0 1 0 -5 0zM1227.5 230 a2.5 2.5 0 1 0 5 0 a2.5 2.5 0 1 0 -5 0z" fill="black"></path><path d="M1367.5 250 a2.5 2.5 0 1 0 5 0 a2.5 2.5 0 1 0 -5 0zM1307.5 230 a2.5 2.5 0 1 0 5 0 a2.5 2.5 0 1 0 -5 0z" fill="black"></path><path d="M427.5 250 a2.5 2.5 0 1 0 5 0 a2.5 2.5 0 1 0 -5 0zM427.5 210 a2.5 2.5 0 1 0 5 0 a2.5 2.5 0 1 0 -5 0z" fill="black"></path><path d="M867.5 90 a2.5 2.5 0 1 0 5 0 a2.5 2.5 0 1 0 -5 0zM867.5 30 a2.5 2.5 0 1 0 5 0 a2.5 2.5 0 1 0 -5 0z" fill="black"></path><path d="M487.5 210 a2.5 2.5 0 1 0 5 0 a2.5 2.5 0 1 0 -5 0zM487.5 310 a2.5 2.5 0 1 0 5 0 a2.5 2.5 0 1 0 -5 0z" fill="black"></path><path d="M547.5 210 a2.5 2.5 0 1 0 5 0 a2.5 2.5 0 1 0 -5 0zM547.5 250 a2.5 2.5 0 1 0 5 0 a2.5 2.5 0 1 0 -5 0z" fill="black"></path><path d="M347.5 50 a2.5 2.5 0 1 0 5 0 a2.5 2.5 0 1 0 -5 0zM407.5 70 a2.5 2.5 0 1 0 5 0 a2.5 2.5 0 1 0 -5 0z" fill="black"></path><path d="M127.5 110 a2.5 2.5 0 1 0 5 0 a2.5 2.5 0 1 0 -5 0zM167.5 90 a2.5 2.5 0 1 0 5 0 a2.5 2.5 0 1 0 -5 0z" fill="black"></path><path d="M1387.5 290 a2.5 2.5 0 1 0 5 0 a2.5 2.5 0 1 0 -5 0zM1427.5 170 a2.5 2.5 0 1 0 5 0 a2.5 2.5 0 1 0 -5 0z" fill="black"></path><path d="M1067.5 90 a2.5 2.5 0 1 0 5 0 a2.5 2.5 0 1 0 -5 0zM1067.5 190 a2.5 2.5 0 1 0 5 0 a2.5 2.5 0 1 0 -5 0z" fill="black"></path><path d="M87.5 350 a2.5 2.5 0 1 0 5 0 a2.5 2.5 0 1 0 -5 0zM107.5 390 a2.5 2.5 0 1 0 5 0 a2.5 2.5 0 1 0 -5 0z" fill="black"></path><path d="M1187.5 50 a2.5 2.5 0 1 0 5 0 a2.5 2.5 0 1 0 -5 0zM1267.5 10 a2.5 2.5 0 1 0 5 0 a2.5 2.5 0 1 0 -5 0z" fill="black"></path><path d="M327.5 170 a2.5 2.5 0 1 0 5 0 a2.5 2.5 0 1 0 -5 0zM327.5 110 a2.5 2.5 0 1 0 5 0 a2.5 2.5 0 1 0 -5 0z" fill="black"></path><path d="M487.5 230 a2.5 2.5 0 1 0 5 0 a2.5 2.5 0 1 0 -5 0zM487.5 270 a2.5 2.5 0 1 0 5 0 a2.5 2.5 0 1 0 -5 0z" fill="black"></path><path d="M1367.5 470 a2.5 2.5 0 1 0 5 0 a2.5 2.5 0 1 0 -5 0zM1287.5 310 a2.5 2.5 0 1 0 5 0 a2.5 2.5 0 1 0 -5 0z" fill="black"></path><path d="M207.5 150 a2.5 2.5 0 1 0 5 0 a2.5 2.5 0 1 0 -5 0zM227.5 190 a2.5 2.5 0 1 0 5 0 a2.5 2.5 0 1 0 -5 0z" fill="black"></path><path d="M127.5 310 a2.5 2.5 0 1 0 5 0 a2.5 2.5 0 1 0 -5 0zM87.5 230 a2.5 2.5 0 1 0 5 0 a2.5 2.5 0 1 0 -5 0z" fill="black"></path><path d="M767.5 30 a2.5 2.5 0 1 0 5 0 a2.5 2.5 0 1 0 -5 0zM667.5 10 a2.5 2.5 0 1 0 5 0 a2.5 2.5 0 1 0 -5 0z" fill="black"></path><path d="M1247.5 530 a2.5 2.5 0 1 0 5 0 a2.5 2.5 0 1 0 -5 0zM1287.5 550 a2.5 2.5 0 1 0 5 0 a2.5 2.5 0 1 0 -5 0z" fill="black"></path><path d="M487.5 530 a2.5 2.5 0 1 0 5 0 a2.5 2.5 0 1 0 -5 0zM527.5 510 a2.5 2.5 0 1 0 5 0 a2.5 2.5 0 1 0 -5 0z" fill="black"></path><path d="M47.5 470 a2.5 2.5 0 1 0 5 0 a2.5 2.5 0 1 0 -5 0zM67.5 510 a2.5 2.5 0 1 0 5 0 a2.5 2.5 0 1 0 -5 0z" fill="black"></path><path d="M1327.5 370 a2.5 2.5 0 1 0 5 0 a2.5 2.5 0 1 0 -5 0zM1327.5 310 a2.5 2.5 0 1 0 5 0 a2.5 2.5 0 1 0 -5 0z" fill="black"></path><path d="M1387.5 90 a2.5 2.5 0 1 0 5 0 a2.5 2.5 0 1 0 -5 0zM1347.5 90 a2.5 2.5 0 1 0 5 0 a2.5 2.5 0 1 0 -5 0z" fill="black"></path><path d="M1307.5 170 a2.5 2.5 0 1 0 5 0 a2.5 2.5 0 1 0 -5 0zM1347.5 150 a2.5 2.5 0 1 0 5 0 a2.5 2.5 0 1 0 -5 0z" fill="black"></path><path d="M607.5 430 a2.5 2.5 0 1 0 5 0 a2.5 2.5 0 1 0 -5 0zM507.5 430 a2.5 2.5 0 1 0 5 0 a2.5 2.5 0 1 0 -5 0z" fill="black"></path><path d="M327.5 330 a2.5 2.5 0 1 0 5 0 a2.5 2.5 0 1 0 -5 0zM287.5 330 a2.5 2.5 0 1 0 5 0 a2.5 2.5 0 1 0 -5 0z" fill="black"></path><path d="M347.5 150 a2.5 2.5 0 1 0 5 0 a2.5 2.5 0 1 0 -5 0zM347.5 110 a2.5 2.5 0 1 0 5 0 a2.5 2.5 0 1 0 -5 0z" fill="black"></path><path d="M1307.5 390 a2.5 2.5 0 1 0 5 0 a2.5 2.5 0 1 0 -5 0zM1287.5 430 a2.5 2.5 0 1 0 5 0 a2.5 2.5 0 1 0 -5 0z" fill="black"></path><path d="M507.5 150 a2.5 2.5 0 1 0 5 0 a2.5 2.5 0 1 0 -5 0zM407.5 130 a2.5 2.5 0 1 0 5 0 a2.5 2.5 0 1 0 -5 0z" fill="black"></path><path d="M1247.5 430 a2.5 2.5 0 1 0 5 0 a2.5 2.5 0 1 0 -5 0zM1227.5 370 a2.5 2.5 0 1 0 5 0 a2.5 2.5 0 1 0 -5 0z" fill="black"></path><path d="M1227.5 530 a2.5 2.5 0 1 0 5 0 a2.5 2.5 0 1 0 -5 0zM1187.5 550 a2.5 2.5 0 1 0 5 0 a2.5 2.5 0 1 0 -5 0z" fill="black"></path><path d="M907.5 230 a2.5 2.5 0 1 0 5 0 a2.5 2.5 0 1 0 -5 0zM987.5 150 a2.5 2.5 0 1 0 5 0 a2.5 2.5 0 1 0 -5 0z" fill="black"></path><path d="M707.5 90 a2.5 2.5 0 1 0 5 0 a2.5 2.5 0 1 0 -5 0zM627.5 10 a2.5 2.5 0 1 0 5 0 a2.5 2.5 0 1 0 -5 0z" fill="black"></path><path d="M607.5 130 a2.5 2.5 0 1 0 5 0 a2.5 2.5 0 1 0 -5 0zM587.5 190 a2.5 2.5 0 1 0 5 0 a2.5 2.5 0 1 0 -5 0z" fill="black"></path><path d="M967.5 350 a2.5 2.5 0 1 0 5 0 a2.5 2.5 0 1 0 -5 0zM907.5 390 a2.5 2.5 0 1 0 5 0 a2.5 2.5 0 1 0 -5 0z" fill="black"></path><path d="M667.5 270 a2.5 2.5 0 1 0 5 0 a2.5 2.5 0 1 0 -5 0zM607.5 250 a2.5 2.5 0 1 0 5 0 a2.5 2.5 0 1 0 -5 0z" fill="black"></path><path d="M1367.5 490 a2.5 2.5 0 1 0 5 0 a2.5 2.5 0 1 0 -5 0zM1307.5 470 a2.5 2.5 0 1 0 5 0 a2.5 2.5 0 1 0 -5 0z" fill="black"></path><path d="M287.5 270 a2.5 2.5 0 1 0 5 0 a2.5 2.5 0 1 0 -5 0zM347.5 310 a2.5 2.5 0 1 0 5 0 a2.5 2.5 0 1 0 -5 0z" fill="black"></path><path d="M387.5 10 a2.5 2.5 0 1 0 5 0 a2.5 2.5 0 1 0 -5 0zM447.5 10 a2.5 2.5 0 1 0 5 0 a2.5 2.5 0 1 0 -5 0z" fill="black"></path><path d="M47.5 170 a2.5 2.5 0 1 0 5 0 a2.5 2.5 0 1 0 -5 0zM27.5 130 a2.5 2.5 0 1 0 5 0 a2.5 2.5 0 1 0 -5 0z" fill="black"></path><path d="M47.5 450 a2.5 2.5 0 1 0 5 0 a2.5 2.5 0 1 0 -5 0zM107.5 470 a2.5 2.5 0 1 0 5 0 a2.5 2.5 0 1 0 -5 0z" fill="black"></path><path d="M107.5 30 a2.5 2.5 0 1 0 5 0 a2.5 2.5 0 1 0 -5 0zM27.5 90 a2.5 2.5 0 1 0 5 0 a2.5 2.5 0 1 0 -5 0z" fill="black"></path><path d="M1047.5 70 a2.5 2.5 0 1 0 5 0 a2.5 2.5 0 1 0 -5 0zM1087.5 50 a2.5 2.5 0 1 0 5 0 a2.5 2.5 0 1 0 -5 0z" fill="black"></path><path d="M747.5 190 a2.5 2.5 0 1 0 5 0 a2.5 2.5 0 1 0 -5 0zM847.5 170 a2.5 2.5 0 1 0 5 0 a2.5 2.5 0 1 0 -5 0z" fill="black"></path><path d="M247.5 490 a2.5 2.5 0 1 0 5 0 a2.5 2.5 0 1 0 -5 0zM167.5 530 a2.5 2.5 0 1 0 5 0 a2.5 2.5 0 1 0 -5 0z" fill="black"></path><path d="M427.5 550 a2.5 2.5 0 1 0 5 0 a2.5 2.5 0 1 0 -5 0zM467.5 550 a2.5 2.5 0 1 0 5 0 a2.5 2.5 0 1 0 -5 0z" fill="black"></path><path d="M187.5 530 a2.5 2.5 0 1 0 5 0 a2.5 2.5 0 1 0 -5 0zM267.5 510 a2.5 2.5 0 1 0 5 0 a2.5 2.5 0 1 0 -5 0z" fill="black"></path><path d="M347.5 10 a2.5 2.5 0 1 0 5 0 a2.5 2.5 0 1 0 -5 0zM327.5 70 a2.5 2.5 0 1 0 5 0 a2.5 2.5 0 1 0 -5 0z" fill="black"></path><path d="M1367.5 330 a2.5 2.5 0 1 0 5 0 a2.5 2.5 0 1 0 -5 0zM1407.5 170 a2.5 2.5 0 1 0 5 0 a2.5 2.5 0 1 0 -5 0z" fill="black"></path><path d="M527.5 50 a2.5 2.5 0 1 0 5 0 a2.5 2.5 0 1 0 -5 0zM447.5 50 a2.5 2.5 0 1 0 5 0 a2.5 2.5 0 1 0 -5 0z" fill="black"></path><path d="M1307.5 430 a2.5 2.5 0 1 0 5 0 a2.5 2.5 0 1 0 -5 0zM1427.5 370 a2.5 2.5 0 1 0 5 0 a2.5 2.5 0 1 0 -5 0z" fill="black"></path><path d="M67.5 90 a2.5 2.5 0 1 0 5 0 a2.5 2.5 0 1 0 -5 0zM87.5 50 a2.5 2.5 0 1 0 5 0 a2.5 2.5 0 1 0 -5 0z" fill="black"></path><path d="M1027.5 450 a2.5 2.5 0 1 0 5 0 a2.5 2.5 0 1 0 -5 0zM987.5 450 a2.5 2.5 0 1 0 5 0 a2.5 2.5 0 1 0 -5 0z" fill="black"></path><path d="M567.5 370 a2.5 2.5 0 1 0 5 0 a2.5 2.5 0 1 0 -5 0zM587.5 310 a2.5 2.5 0 1 0 5 0 a2.5 2.5 0 1 0 -5 0z" fill="black"></path><path d="M1247.5 270 a2.5 2.5 0 1 0 5 0 a2.5 2.5 0 1 0 -5 0zM1207.5 310 a2.5 2.5 0 1 0 5 0 a2.5 2.5 0 1 0 -5 0z" fill="black"></path><path d="M187.5 370 a2.5 2.5 0 1 0 5 0 a2.5 2.5 0 1 0 -5 0zM227.5 370 a2.5 2.5 0 1 0 5 0 a2.5 2.5 0 1 0 -5 0z" fill="black"></path><path d="M887.5 530 a2.5 2.5 0 1 0 5 0 a2.5 2.5 0 1 0 -5 0zM767.5 530 a2.5 2.5 0 1 0 5 0 a2.5 2.5 0 1 0 -5 0z" fill="black"></path><path d="M947.5 50 a2.5 2.5 0 1 0 5 0 a2.5 2.5 0 1 0 -5 0zM907.5 90 a2.5 2.5 0 1 0 5 0 a2.5 2.5 0 1 0 -5 0z" fill="black"></path><path d="M187.5 350 a2.5 2.5 0 1 0 5 0 a2.5 2.5 0 1 0 -5 0zM187.5 290 a2.5 2.5 0 1 0 5 0 a2.5 2.5 0 1 0 -5 0z" fill="black"></path><path d="M1407.5 90 a2.5 2.5 0 1 0 5 0 a2.5 2.5 0 1 0 -5 0zM1427.5 50 a2.5 2.5 0 1 0 5 0 a2.5 2.5 0 1 0 -5 0z" fill="black"></path><path d="M1267.5 350 a2.5 2.5 0 1 0 5 0 a2.5 2.5 0 1 0 -5 0zM1267.5 390 a2.5 2.5 0 1 0 5 0 a2.5 2.5 0 1 0 -5 0z" fill="black"></path><path d="M1427.5 310 a2.5 2.5 0 1 0 5 0 a2.5 2.5 0 1 0 -5 0zM1387.5 330 a2.5 2.5 0 1 0 5 0 a2.5 2.5 0 1 0 -5 0z" fill="black"></path><path d="M827.5 10 a2.5 2.5 0 1 0 5 0 a2.5 2.5 0 1 0 -5 0zM767.5 10 a2.5 2.5 0 1 0 5 0 a2.5 2.5 0 1 0 -5 0z" fill="black"></path><path d="M1347.5 370 a2.5 2.5 0 1 0 5 0 a2.5 2.5 0 1 0 -5 0zM1347.5 330 a2.5 2.5 0 1 0 5 0 a2.5 2.5 0 1 0 -5 0z" fill="black"></path><path d="M1027.5 490 a2.5 2.5 0 1 0 5 0 a2.5 2.5 0 1 0 -5 0zM987.5 470 a2.5 2.5 0 1 0 5 0 a2.5 2.5 0 1 0 -5 0z" fill="black"></path><path d="M1027.5 50 a2.5 2.5 0 1 0 5 0 a2.5 2.5 0 1 0 -5 0zM1027.5 130 a2.5 2.5 0 1 0 5 0 a2.5 2.5 0 1 0 -5 0z" fill="black"></path><path d="M727.5 50 a2.5 2.5 0 1 0 5 0 a2.5 2.5 0 1 0 -5 0zM687.5 30 a2.5 2.5 0 1 0 5 0 a2.5 2.5 0 1 0 -5 0z" fill="black"></path><path d="M467.5 490 a2.5 2.5 0 1 0 5 0 a2.5 2.5 0 1 0 -5 0zM427.5 490 a2.5 2.5 0 1 0 5 0 a2.5 2.5 0 1 0 -5 0z" fill="black"></path><path d="M507.5 30 a2.5 2.5 0 1 0 5 0 a2.5 2.5 0 1 0 -5 0zM567.5 50 a2.5 2.5 0 1 0 5 0 a2.5 2.5 0 1 0 -5 0z" fill="black"></path><path d="M1207.5 550 a2.5 2.5 0 1 0 5 0 a2.5 2.5 0 1 0 -5 0zM1267.5 550 a2.5 2.5 0 1 0 5 0 a2.5 2.5 0 1 0 -5 0z" fill="black"></path><path d="M1427.5 270 a2.5 2.5 0 1 0 5 0 a2.5 2.5 0 1 0 -5 0zM1407.5 310 a2.5 2.5 0 1 0 5 0 a2.5 2.5 0 1 0 -5 0z" fill="black"></path></mask></defs></svg>