<?xml version="1.0" encoding="iso-8859-1"?>
<!-- Generator: Adobe Illustrator 16.0.0, SVG Export Plug-In . SVG Version: 6.00 Build 0)  -->
<!DOCTYPE svg PUBLIC "-//W3C//DTD SVG 1.1//EN" "http://www.w3.org/Graphics/SVG/1.1/DTD/svg11.dtd">
<svg version="1.1" xmlns="http://www.w3.org/2000/svg" xmlns:xlink="http://www.w3.org/1999/xlink" x="0px" y="0px" width="256px"
	 height="256px" viewBox="0 0 512 512" style="enable-background:new 0 0 512 512;" xml:space="preserve">
<g id="_x33_41-Call_x2C__Contact_x2C__Emergency_x2C__Emergency_Call">
	<g>
		<path style="fill:#07CC66;" d="M453.901,71.79c-9.271-10.02-22.54-16.29-37.28-16.29c-28.08,0-50.84,22.76-50.84,50.84
			c0,13.34,5.14,25.48,13.56,34.55c1.86,2.02,3.89,3.89,6.07,5.59h0.01c8.61,6.71,19.44,10.7,31.2,10.7c8,0,15.58-1.85,22.31-5.15
			c0.011,0,0.011,0,0.011,0c16.89-8.26,28.52-25.62,28.52-45.69C467.461,93,462.321,80.86,453.901,71.79z"/>
		<path style="fill:#19AB5C;" d="M453.901,71.79c8.42,9.07,13.56,21.21,13.56,34.55c0,20.07-11.63,37.43-28.52,45.69
			c0,0,0,0-0.011,0c-6.729,3.3-14.31,5.15-22.31,5.15c-11.76,0-22.59-3.99-31.2-10.7h-0.01c-2.181-1.7-4.21-3.57-6.07-5.59
			L453.901,71.79z"/>
		<path style="fill:#07CC66;" d="M453.901,71.79l-74.561,69.1c-8.42-9.07-13.56-21.21-13.56-34.55c0-28.08,22.76-50.84,50.84-50.84
			C431.361,55.5,444.631,61.77,453.901,71.79z"/>
		<path style="fill:#FFD400;" d="M438.941,152.03c0,0,0,0-0.011,0c-6.729,3.3-14.31,5.15-22.31,5.15c-11.76,0-22.59-3.99-31.2-10.7
			h-0.01h-30.33h-58.87c-20.69,0-37.46,16.77-37.46,37.46s16.77,37.46,37.46,37.46h58.87h64.22c20.69,0,37.46-16.77,37.46-37.46
			C456.761,170.45,449.631,158.64,438.941,152.03z"/>
		<path style="fill:#FAA71A;" d="M438.941,152.03c10.689,6.61,17.819,18.42,17.819,31.91c0,20.69-16.77,37.46-37.46,37.46h-64.22
			v-74.92h30.33h0.01c8.61,6.71,19.44,10.7,31.2,10.7c8,0,15.58-1.85,22.31-5.15C438.941,152.03,438.941,152.03,438.941,152.03z"/>
		<path style="fill:#FFD400;" d="M355.081,146.48v74.92h-58.87c-20.69,0-37.46-16.77-37.46-37.46s16.77-37.46,37.46-37.46H355.081z"
			/>
		<path style="fill:#5CBEFF;" d="M447.461,325.5c11.05,0,20,8.95,20,20s-8.95,20-20,20s-20-8.95-20-20S436.411,325.5,447.461,325.5z
			"/>
		<path style="fill:#5CBEFF;" d="M122.461,25.5c13.81,0,25,11.19,25,25s-11.19,25-25,25c-13.811,0-25-11.19-25-25
			S108.65,25.5,122.461,25.5z"/>
		<path style="fill:#8C9FB0;" d="M396.421,384.4c7.49,11.29,7.23,28.01-0.11,40.08c-1.27,2.119-5.55,6.939-10.899,12.6
			l-122.09-85.05c9.359-10.8,18.26-21.021,19.02-21.601c13.521-10.489,33.03-7.939,47.271,1.94
			C346.041,343.77,387.441,370.86,396.421,384.4z"/>
		<path style="fill:#8C9FB0;" d="M175.061,177.81c9.68,14.39,12.41,33.74,1.92,47.26c-0.609,0.78-11.26,10.07-22.33,19.65
			L70.61,121.75c5.551-5.22,10.24-9.39,12.32-10.65c12.08-7.32,28.81-7.58,40.1-0.09C136.561,119.99,164.921,162.76,175.061,177.81z
			"/>
		<path style="fill:#57606F;" d="M263.321,352.03l122.09,85.05c-11.141,11.83-26.931,27.34-29.681,29.5
			c-2.35,1.83-3.38,3.11-5.939,4.38c-39.98,20.23-118.91,1.57-157.58-15c-53.09-22.71-118.05-87.67-140.76-140.76
			c-18.271-42.641-34.82-118.4-15-157.58c1.289-2.54,2.569-3.58,4.399-5.92c2.17-2.77,17.9-18.78,29.76-29.95l84.04,122.97
			c-12.31,10.669-25.13,21.68-25.13,21.68c9.65,41.34,70.17,101.859,111.49,111.489C241.011,377.89,252.461,364.56,263.321,352.03z"
			/>
		<path style="fill:#8CF2FF;" d="M447.461,445.5c5.52,0,10,4.48,10,10s-4.48,10-10,10s-10-4.48-10-10S441.941,445.5,447.461,445.5z"
			/>
		<path style="fill:#8CF2FF;" d="M397.461,295.5c5.52,0,10,4.48,10,10s-4.48,10-10,10s-10-4.48-10-10S391.941,295.5,397.461,295.5z"
			/>
		<path style="fill:#CFE0E9;" d="M337.461,85.5c5.52,0,10,4.48,10,10s-4.48,10-10,10s-10-4.48-10-10S331.941,85.5,337.461,85.5z"/>
		<path style="fill:#8CF2FF;" d="M197.461,45.5c5.52,0,10,4.48,10,10s-4.48,10-10,10c-5.521,0-10-4.48-10-10
			S191.94,45.5,197.461,45.5z"/>
		<path style="fill:#8CF2FF;" d="M187.461,275.5c5.52,0,10,4.48,10,10s-4.48,10-10,10c-5.521,0-10-4.48-10-10
			S181.94,275.5,187.461,275.5z"/>
		<path style="fill:#8CF2FF;" d="M97.461,445.5c5.52,0,10,4.48,10,10s-4.48,10-10,10c-5.521,0-10-4.48-10-10
			S91.94,445.5,97.461,445.5z"/>
		<path style="fill:#8CF2FF;" d="M47.461,385.5c5.52,0,10,4.48,10,10s-4.48,10-10,10c-5.521,0-10-4.48-10-10
			S41.94,385.5,47.461,385.5z"/>
		<path style="fill:#CFE0E9;" d="M237.464,305.501c-2.975,0-5.88-1.329-7.824-3.77c-2.837-3.561-2.911-8.589-0.179-12.231l18-24h-20
			c-5.523,0-10-4.478-10-10v-160c0-5.523,4.477-10,10-10h80c5.522,0,10,4.477,10,10s-4.478,10-10,10h-70v140h30
			c3.788,0,7.25,2.14,8.944,5.528c1.694,3.388,1.328,7.442-0.944,10.472l-6.938,9.252l54.877-24.39
			c1.278-0.568,2.662-0.862,4.062-0.862h130c5.522,0,10,4.477,10,10c0,5.522-4.478,10-10,10H329.583l-88.061,39.138
			C240.213,305.22,238.831,305.501,237.464,305.501z"/>
	</g>
</g>
<g id="Layer_1">
</g>
</svg>
